<?xml version="1.0" encoding="UTF-8" standalone="no"?>
<!-- Created with Inkscape (http://www.inkscape.org/) -->

<svg
   xmlns:dc="http://purl.org/dc/elements/1.1/"
   xmlns:cc="http://creativecommons.org/ns#"
   xmlns:rdf="http://www.w3.org/1999/02/22-rdf-syntax-ns#"
   xmlns:svg="http://www.w3.org/2000/svg"
   xmlns="http://www.w3.org/2000/svg"
   xmlns:sodipodi="http://sodipodi.sourceforge.net/DTD/sodipodi-0.dtd"
   xmlns:inkscape="http://www.inkscape.org/namespaces/inkscape"
   id="svg4252"
   version="1.1"
   inkscape:version="0.48.5 r10040"
   width="1052.25"
   height="744"
   xml:space="preserve"
   sodipodi:docname="fly4freeAnkieta.pdf"><sodipodi:namedview
     pagecolor="#ffffff"
     bordercolor="#666666"
     borderopacity="1"
     objecttolerance="10"
     gridtolerance="10"
     guidetolerance="10"
     inkscape:pageopacity="0"
     inkscape:pageshadow="2"
     inkscape:window-width="1304"
     inkscape:window-height="745"
     id="namedview4254"
     showgrid="false"
     inkscape:zoom="0.6344086"
     inkscape:cx="939.26605"
     inkscape:cy="238.42033"
     inkscape:window-x="54"
     inkscape:window-y="-8"
     inkscape:window-maximized="1"
     inkscape:current-layer="g4260" /><metadata
     id="metadata4258"><rdf:RDF><cc:Work
         rdf:about=""><dc:format>image/svg+xml</dc:format><dc:type
           rdf:resource="http://purl.org/dc/dcmitype/StillImage" /><dc:title></dc:title></cc:Work></rdf:RDF></metadata><defs
     id="defs4256"><clipPath
       id="clipPath4276"
       clipPathUnits="userSpaceOnUse"><path
         id="path4278"
         clip-rule="evenodd"
         d="m 51.24,103.44 739.44,0 0,388.2 -739.44,0 0,-388.2 z" /></clipPath><clipPath
       id="clipPath4288"
       clipPathUnits="userSpaceOnUse"><path
         id="path4290"
         clip-rule="evenodd"
         d="m 51.24,103.44 739.44,0 0,388.2 -739.44,0 0,-388.2 z" /></clipPath><clipPath
       id="clipPath4300"
       clipPathUnits="userSpaceOnUse"><path
         id="path4302"
         clip-rule="evenodd"
         d="m 51.24,103.44 739.44,0 0,388.2 -739.44,0 0,-388.2 z" /></clipPath><clipPath
       id="clipPath4312"
       clipPathUnits="userSpaceOnUse"><path
         id="path4314"
         clip-rule="evenodd"
         d="m 51.24,103.44 739.44,0 0,388.2 -739.44,0 0,-388.2 z" /></clipPath><clipPath
       id="clipPath4324"
       clipPathUnits="userSpaceOnUse"><path
         id="path4326"
         clip-rule="evenodd"
         d="m 51.24,103.44 739.44,0 0,388.2 -739.44,0 0,-388.2 z" /></clipPath><clipPath
       id="clipPath4336"
       clipPathUnits="userSpaceOnUse"><path
         id="path4338"
         clip-rule="evenodd"
         d="m 554.52,391.56 176.4,0 0,21.84 -176.4,0 0,-21.84 z" /></clipPath><clipPath
       id="clipPath4348"
       clipPathUnits="userSpaceOnUse"><path
         id="path4350"
         clip-rule="evenodd"
         d="m 51.24,103.44 739.44,0 0,388.2 -739.44,0 0,-388.2 z" /></clipPath><clipPath
       id="clipPath4360"
       clipPathUnits="userSpaceOnUse"><path
         id="path4362"
         clip-rule="evenodd"
         d="m 51.24,103.44 739.44,0 0,388.2 -739.44,0 0,-388.2 z" /></clipPath><clipPath
       id="clipPath4372"
       clipPathUnits="userSpaceOnUse"><path
         id="path4374"
         clip-rule="evenodd"
         d="m 51.24,103.44 739.44,0 0,388.2 -739.44,0 0,-388.2 z" /></clipPath><clipPath
       id="clipPath4384"
       clipPathUnits="userSpaceOnUse"><path
         id="path4386"
         clip-rule="evenodd"
         d="m 51.24,103.44 739.44,0 0,388.2 -739.44,0 0,-388.2 z" /></clipPath><clipPath
       id="clipPath4396"
       clipPathUnits="userSpaceOnUse"><path
         id="path4398"
         clip-rule="evenodd"
         d="m 51.24,103.44 739.44,0 0,388.2 -739.44,0 0,-388.2 z" /></clipPath><clipPath
       id="clipPath4408"
       clipPathUnits="userSpaceOnUse"><path
         id="path4410"
         clip-rule="evenodd"
         d="m 51.24,103.44 739.44,0 0,388.2 -739.44,0 0,-388.2 z" /></clipPath><clipPath
       id="clipPath4420"
       clipPathUnits="userSpaceOnUse"><path
         id="path4422"
         clip-rule="evenodd"
         d="m 51.24,103.44 739.44,0 0,388.2 -739.44,0 0,-388.2 z" /></clipPath><clipPath
       id="clipPath4432"
       clipPathUnits="userSpaceOnUse"><path
         id="path4434"
         clip-rule="evenodd"
         d="m 51.24,103.44 739.44,0 0,388.2 -739.44,0 0,-388.2 z" /></clipPath><clipPath
       id="clipPath4444"
       clipPathUnits="userSpaceOnUse"><path
         id="path4446"
         clip-rule="evenodd"
         d="m 51.24,103.44 739.44,0 0,388.2 -739.44,0 0,-388.2 z" /></clipPath><clipPath
       id="clipPath4456"
       clipPathUnits="userSpaceOnUse"><path
         id="path4458"
         clip-rule="evenodd"
         d="m 51.24,103.44 739.44,0 0,388.2 -739.44,0 0,-388.2 z" /></clipPath><clipPath
       id="clipPath4468"
       clipPathUnits="userSpaceOnUse"><path
         id="path4470"
         clip-rule="evenodd"
         d="m 51.24,103.44 739.44,0 0,388.2 -739.44,0 0,-388.2 z" /></clipPath><clipPath
       id="clipPath4480"
       clipPathUnits="userSpaceOnUse"><path
         id="path4482"
         clip-rule="evenodd"
         d="m 51.24,103.44 739.44,0 0,388.2 -739.44,0 0,-388.2 z" /></clipPath><clipPath
       id="clipPath4492"
       clipPathUnits="userSpaceOnUse"><path
         id="path4494"
         clip-rule="evenodd"
         d="m 51.24,103.44 739.44,0 0,388.2 -739.44,0 0,-388.2 z" /></clipPath><clipPath
       id="clipPath4504"
       clipPathUnits="userSpaceOnUse"><path
         id="path4506"
         clip-rule="evenodd"
         d="m 51.24,103.44 739.44,0 0,388.2 -739.44,0 0,-388.2 z" /></clipPath><clipPath
       id="clipPath4516"
       clipPathUnits="userSpaceOnUse"><path
         id="path4518"
         clip-rule="evenodd"
         d="m 51.24,103.44 739.44,0 0,388.2 -739.44,0 0,-388.2 z" /></clipPath><clipPath
       id="clipPath4528"
       clipPathUnits="userSpaceOnUse"><path
         id="path4530"
         clip-rule="evenodd"
         d="m 51.24,103.44 739.44,0 0,388.2 -739.44,0 0,-388.2 z" /></clipPath><clipPath
       id="clipPath4540"
       clipPathUnits="userSpaceOnUse"><path
         id="path4542"
         clip-rule="evenodd"
         d="m 51.24,103.44 739.44,0 0,388.2 -739.44,0 0,-388.2 z" /></clipPath></defs><g
     transform="matrix(1.25,0,0,-1.25,0,744)"
     inkscape:label="fly4freeAnkieta"
     inkscape:groupmode="layer"
     id="g4260"><path
       id="path4262"
       style="fill:#ffffff;fill-opacity:1;fill-rule:evenodd;stroke:none"
       d="m 51.253,103.4 739.44,0 0,388.2 -739.44,0 0,-388.2 z" /><path
       id="path4264"
       style="fill:none;stroke:#d9d9d9;stroke-opacity:1;stroke-width:1.2156;stroke-linecap:butt;stroke-linejoin:round;stroke-miterlimit:10;stroke-dasharray:none"
       d="m 431.67,473.77 0,-332.77 m 47.07,332.77 0,-332.77 m 46.87,332.77 0,-332.77 m 46.87,332.77 0,-332.77 m 47.07,332.77 0,-332.77 m 46.87,332.77 0,-332.77 m 46.87,332.77 0,-332.77 m 46.97,332.77 0,-332.77" /><path
       id="path4266"
       style="fill:#45c795;fill-opacity:1;fill-rule:nonzero;stroke:none"
       d="m 741.49,145.61 -356.66,0 0,38.31 356.66,0 0,-38.31 z m -159.48,47.45 -197.18,0 0,38.51 197.18,0 0,-38.51 z m -140.81,47.65 -56.37,0 0,38.32 56.37,0 0,-38.32 z m -18.86,47.46 -37.51,0 0,38.31 37.51,0 0,-38.31 z m -18.67,47.65 -18.84,0 0,38.31 18.84,0 0,-38.31 z m 225.21,47.45 -244.05,0 0,38.32 244.05,0 0,-38.32 z M 413,430.92 l -28.17,0 0,38.32 28.17,0 0,-38.32 z" /><path
       id="path4268"
       style="fill:none;stroke:#d9d9d9;stroke-opacity:1;stroke-width:1.2156;stroke-linecap:butt;stroke-linejoin:round;stroke-miterlimit:10;stroke-dasharray:none"
       d="m 384.83,141 0,332.77" /><path
       id="path4270"
       style="fill:none;stroke:#a6a6a6;stroke-opacity:1;stroke-width:1.2156;stroke-linecap:butt;stroke-linejoin:round;stroke-miterlimit:10;stroke-dasharray:none"
       d="m 403.6,354.93 0.84,0 7.36,0" /><g
       transform="translate(5.7958786,-0.44583682)"
       id="g4272"><g
         clip-path="url(#clipPath4276)"
         id="g4274"><text
   id="text4280"
   transform="matrix(1,0,0,-1,738.72,159.77)"><tspan
     id="tspan4282"
     sodipodi:role="line"
     y="0"
     x="0 7.392004 14.784008"
     style="font-size:14.59200001px;font-variant:normal;font-weight:normal;writing-mode:lr-tb;fill:#404040;fill-opacity:1;fill-rule:nonzero;stroke:none;font-family:Calibri;-inkscape-font-specification:Calibri">38%</tspan></text>

</g></g><g
       id="g4284"><g
         transform="translate(5.7958786,0)"
         clip-path="url(#clipPath4288)"
         id="g4286"><text
   id="text4292"
   transform="matrix(1,0,0,-1,580.54,207.31)"><tspan
     id="tspan4294"
     sodipodi:role="line"
     y="0"
     x="0 7.3919959 14.783992"
     style="font-size:14.56799984px;font-variant:normal;font-weight:normal;writing-mode:lr-tb;fill:#404040;fill-opacity:1;fill-rule:nonzero;stroke:none;font-family:Calibri;-inkscape-font-specification:Calibri">21%</tspan></text>

</g></g><g
       id="g4296"><g
         clip-path="url(#clipPath4300)"
         id="g4298"><text
   id="text4304"
   transform="matrix(1,0,0,-1,449.35,254.88)"><tspan
     id="tspan4306"
     sodipodi:role="line"
     y="0"
     x="0 7.392004"
     style="fill:#404040;fill-opacity:1;fill-rule:nonzero;stroke:none;font-family:Calibri;font-variant:normal;font-weight:normal;font-size:14.592;writing-mode:lr;-inkscape-font-specification:Calibri">6%</tspan></text>

</g></g><g
       id="g4308"><g
         clip-path="url(#clipPath4312)"
         id="g4310"><text
   id="text4316"
   transform="matrix(1,0,0,-1,431.26,302.42)"><tspan
     id="tspan4318"
     sodipodi:role="line"
     y="0"
     x="0 7.392004"
     style="fill:#404040;fill-opacity:1;fill-rule:nonzero;stroke:none;font-family:Calibri;font-variant:normal;font-weight:normal;font-size:14.592;writing-mode:lr;-inkscape-font-specification:Calibri">4%</tspan></text>

</g></g><g
       id="g4320"><g
         clip-path="url(#clipPath4324)"
         id="g4322"><text
   id="text4328"
   transform="matrix(1,0,0,-1,416.64,349.97)"><tspan
     id="tspan4330"
     sodipodi:role="line"
     y="0"
     x="0 7.392004"
     style="fill:#404040;fill-opacity:1;fill-rule:nonzero;stroke:none;font-family:Calibri;font-variant:normal;font-weight:normal;font-size:14.592;writing-mode:lr;-inkscape-font-specification:Calibri">2%</tspan></text>

</g></g><g
       transform="translate(3.2,0)"
       id="g4332"><g
         clip-path="url(#clipPath4336)"
         id="g4334"><text
   id="text4340"
   transform="matrix(1,0,0,-1,630.07,397.51)"><tspan
     id="tspan4342"
     sodipodi:role="line"
     y="0"
     x="0 7.392004 14.784008"
     style="font-size:14.59200001px;font-variant:normal;font-weight:normal;writing-mode:lr-tb;fill:#404040;fill-opacity:1;fill-rule:nonzero;stroke:none;font-family:Calibri;-inkscape-font-specification:Calibri">26%</tspan></text>

</g></g><g
       id="g4344"><g
         clip-path="url(#clipPath4348)"
         id="g4346"><text
   id="text4352"
   transform="matrix(1,0,0,-1,421.34,445.06)"><tspan
     id="tspan4354"
     sodipodi:role="line"
     y="0"
     x="0 7.392004"
     style="fill:#404040;fill-opacity:1;fill-rule:nonzero;stroke:none;font-family:Calibri;font-variant:normal;font-weight:normal;font-size:14.592;writing-mode:lr;-inkscape-font-specification:Calibri">3%</tspan></text>

</g></g><g
       id="g4356"><g
         clip-path="url(#clipPath4360)"
         id="g4358"><text
   id="text4364"
   transform="matrix(1,0,0,-1,375.98,117.84)"><tspan
     id="tspan4366"
     sodipodi:role="line"
     y="0"
     x="0 7.392004"
     style="fill:#595959;fill-opacity:1;fill-rule:nonzero;stroke:none;font-family:Calibri;font-variant:normal;font-weight:normal;font-size:14.592;writing-mode:lr;-inkscape-font-specification:Calibri">0%</tspan></text>

</g></g><g
       id="g4368"><g
         clip-path="url(#clipPath4372)"
         id="g4370"><text
   id="text4376"
   transform="matrix(1,0,0,-1,422.9,117.84)"><tspan
     id="tspan4378"
     sodipodi:role="line"
     y="0"
     x="0 7.392004"
     style="fill:#595959;fill-opacity:1;fill-rule:nonzero;stroke:none;font-family:Calibri;font-variant:normal;font-weight:normal;font-size:14.592;writing-mode:lr;-inkscape-font-specification:Calibri">5%</tspan></text>

</g></g><g
       id="g4380"><g
         clip-path="url(#clipPath4384)"
         id="g4382"><text
   id="text4388"
   transform="matrix(1,0,0,-1,466.15,117.84)"><tspan
     id="tspan4390"
     sodipodi:role="line"
     y="0"
     x="0 7.392004 14.784008"
     style="fill:#595959;fill-opacity:1;fill-rule:nonzero;stroke:none;font-family:Calibri;font-variant:normal;font-weight:normal;font-size:14.592;writing-mode:lr;-inkscape-font-specification:Calibri">10%</tspan></text>

</g></g><g
       id="g4392"><g
         clip-path="url(#clipPath4396)"
         id="g4394"><text
   id="text4400"
   transform="matrix(1,0,0,-1,513.1,117.84)"><tspan
     id="tspan4402"
     sodipodi:role="line"
     y="0"
     x="0 7.392004 14.784008"
     style="fill:#595959;fill-opacity:1;fill-rule:nonzero;stroke:none;font-family:Calibri;font-variant:normal;font-weight:normal;font-size:14.592;writing-mode:lr;-inkscape-font-specification:Calibri">15%</tspan></text>

</g></g><g
       id="g4404"><g
         clip-path="url(#clipPath4408)"
         id="g4406"><text
   id="text4412"
   transform="matrix(1,0,0,-1,560.02,117.84)"><tspan
     id="tspan4414"
     sodipodi:role="line"
     y="0"
     x="0 7.392004 14.784008"
     style="fill:#595959;fill-opacity:1;fill-rule:nonzero;stroke:none;font-family:Calibri;font-variant:normal;font-weight:normal;font-size:14.592;writing-mode:lr;-inkscape-font-specification:Calibri">20%</tspan></text>

</g></g><g
       id="g4416"><g
         clip-path="url(#clipPath4420)"
         id="g4418"><text
   id="text4424"
   transform="matrix(1,0,0,-1,606.96,117.84)"><tspan
     id="tspan4426"
     sodipodi:role="line"
     y="0"
     x="0 7.392004 14.784008"
     style="fill:#595959;fill-opacity:1;fill-rule:nonzero;stroke:none;font-family:Calibri;font-variant:normal;font-weight:normal;font-size:14.592;writing-mode:lr;-inkscape-font-specification:Calibri">25%</tspan></text>

</g></g><g
       id="g4428"><g
         clip-path="url(#clipPath4432)"
         id="g4430"><text
   id="text4436"
   transform="matrix(1,0,0,-1,653.9,117.84)"><tspan
     id="tspan4438"
     sodipodi:role="line"
     y="0"
     x="0 7.392004 14.784008"
     style="fill:#595959;fill-opacity:1;fill-rule:nonzero;stroke:none;font-family:Calibri;font-variant:normal;font-weight:normal;font-size:14.592;writing-mode:lr;-inkscape-font-specification:Calibri">30%</tspan></text>

</g></g><g
       id="g4440"><g
         clip-path="url(#clipPath4444)"
         id="g4442"><text
   id="text4448"
   transform="matrix(1,0,0,-1,700.82,117.84)"><tspan
     id="tspan4450"
     sodipodi:role="line"
     y="0"
     x="0 7.392004 14.784008"
     style="fill:#595959;fill-opacity:1;fill-rule:nonzero;stroke:none;font-family:Calibri;font-variant:normal;font-weight:normal;font-size:14.592;writing-mode:lr;-inkscape-font-specification:Calibri">35%</tspan></text>

</g></g><g
       id="g4452"><g
         clip-path="url(#clipPath4456)"
         id="g4454"><text
   id="text4460"
   transform="matrix(1,0,0,-1,747.77,117.84)"><tspan
     id="tspan4462"
     sodipodi:role="line"
     y="0"
     x="0 7.392004 14.784008"
     style="fill:#595959;fill-opacity:1;fill-rule:nonzero;stroke:none;font-family:Calibri;font-variant:normal;font-weight:normal;font-size:14.592;writing-mode:lr;-inkscape-font-specification:Calibri">40%</tspan></text>

</g></g><g
       id="g4464"><g
         clip-path="url(#clipPath4468)"
         id="g4466"><text
   id="text4472"
   transform="matrix(1,0,0,-1,146.88,160.58)"><tspan
     id="tspan4474"
     sodipodi:role="line"
     y="0"
     x="0 7.777536 13.599744 20.20992 25.09824 32.087808 43.746816 47.044608 54.661632 57.959424 65.561856 72.551424 80.32896 86.939136 98.598144 101.895936 113.554944 116.911104 124.10496 127.592448 133.254144 139.484928 147.072768 150.37056 160.8768 164.174592 167.851776 175.4688 180.35712 187.711488 192.804096 200.362752 207.746304 213.7728 217.260288"
     style="fill:#595959;fill-opacity:1;fill-rule:nonzero;stroke:none;font-family:Calibri;font-variant:normal;font-weight:normal;font-size:14.592;writing-mode:lr;-inkscape-font-specification:Calibri">Czytam o danym miejscu w Internecie</tspan></text>

</g></g><g
       id="g4476"><g
         clip-path="url(#clipPath4480)"
         id="g4478"><text
   id="text4484"
   transform="matrix(1,0,0,-1,204.12,208.13)"><tspan
     id="tspan4486"
     sodipodi:role="line"
     y="0"
     x="0 7.58784 15.161088 22.924032 30.511872 33.99936 41.397504 44.491008 52.253952 57.288192 63.1104 70.304256 80.781312 88.369152 96.132096 103.719936 107.03232 113.67168 116.969472 121.434624 124.732416 131.313408 137.135616 140.448 147.437568 153.099264 159.738624"
     style="fill:#595959;fill-opacity:1;fill-rule:nonzero;stroke:none;font-family:Calibri;font-variant:normal;font-weight:normal;font-size:14.592;writing-mode:lr;-inkscape-font-specification:Calibri">Kupuję przewodnik - książkę</tspan></text>

</g></g><g
       id="g4488"><g
         clip-path="url(#clipPath4492)"
         id="g4490"><text
   id="text4496"
   transform="matrix(1,0,0,-1,128.64,255.67)"><tspan
     id="tspan4498"
     sodipodi:role="line"
     y="0"
     x="0 6.595584 12.768 16.12416 23.113728 30.05952 37.049088 48.5184 51.816192 59.564544 64.598784 70.420992 77.614848 88.091904 95.679744 103.442688 111.030528 114.313728 120.953088 124.207104 131.970048 138.959616 142.05312 147.072768 154.266624 157.549824 164.74368 169.19424 176.971776 184.559616 187.857408 192.278784 199.895808 207.658752 211.335936 214.633728 222.031872 231.166464 237.762048"
     style="fill:#595959;fill-opacity:1;fill-rule:nonzero;stroke:none;font-family:Calibri;font-variant:normal;font-weight:normal;font-size:14.592;writing-mode:lr;-inkscape-font-specification:Calibri">Ściągam przewodnik na telefon (np. PDF)</tspan></text>

</g></g><g
       id="g4500"><g
         clip-path="url(#clipPath4504)"
         id="g4502"><text
   id="text4508"
   transform="matrix(1,0,0,-1,136.15,303.22)"><tspan
     id="tspan4510"
     sodipodi:role="line"
     y="0"
     x="0 6.624768 12.855552 16.167936 23.157504 30.176256 37.165824 48.678912 51.976704 59.783424 64.876032 70.683648 77.877504 88.369152 95.956992 103.74912 111.33696 114.649344 121.288704 124.586496 132.364032 139.3536 142.49088 147.539712 154.52928 162.131712 165.444096 172.637952 177.686784 180.984576 185.289216 193.081344 200.669184 204.346368 207.64416 215.246592 224.220672 230.816256"
     style="fill:#595959;fill-opacity:1;fill-rule:nonzero;stroke:none;font-family:Calibri;font-variant:normal;font-weight:normal;font-size:14.592;writing-mode:lr;-inkscape-font-specification:Calibri">Ściągam przewodnik na tablet (np. PDF)</tspan></text>

</g></g><g
       id="g4512"><g
         clip-path="url(#clipPath4516)"
         id="g4514"><text
   id="text4520"
   transform="matrix(1,0,0,-1,61.8,350.76)"><tspan
     id="tspan4522"
     sodipodi:role="line"
     y="0"
     x="0 6.599304 12.805272 16.09764 23.075712 30.053784 37.031856 48.51144 51.803808 59.553984 64.594512 70.407144 77.589168 88.06356 95.653488 103.418232 111.00816 114.300528 120.928968 124.221336 131.956944 138.935016 142.038 148.243968 154.0566 160.655904 165.536184 173.082408 176.549592 183.178032 186.4704 193.60872 201.198648 208.963392 216.55332 223.18176 230.917368 241.39176 244.684128 248.952552 256.717296 264.307224 267.599592 275.174952 278.46732 286.232064 293.821992 297.11436 304.485768"
     style="fill:#595959;fill-opacity:1;fill-rule:nonzero;stroke:none;font-family:Calibri;font-variant:normal;font-weight:normal;font-size:14.568;writing-mode:lr;-inkscape-font-specification:Calibri">Ściągam przewodnik na czytnik ebooków (np Kindle)</tspan></text>

</g></g><g
       id="g4524"><g
         clip-path="url(#clipPath4528)"
         id="g4526"><text
   id="text4532"
   transform="matrix(1,0,0,-1,79.824,398.33)"><tspan
     id="tspan4534"
     sodipodi:role="line"
     y="0"
     x="0 8.97408 14.022912 21.785856 28.425216 35.998464 39.485952 46.884096 50.006784 53.494272 61.082112 65.970432 73.3248 78.417408 85.58208 91.229184 98.992128 102.479616 109.469184 115.524864 122.908416 126.206208 137.865216 144.854784 149.743104 156.966144 162.058752 165.341952 172.33152 176.037888 182.648064 185.945856 191.607552 199.370496 206.360064 209.716224 216.895488 222.717696 226.03008 233.793024 241.380864 248.57472 251.872512 262.378752 265.676544 271.323648 274.636032 282.019584 288.192"
     style="fill:#595959;fill-opacity:1;fill-rule:nonzero;stroke:none;font-family:Calibri;font-variant:normal;font-weight:normal;font-size:14.592;writing-mode:lr;-inkscape-font-specification:Calibri">Drukuję interesujące materiały znalezione w sieci</tspan></text>

</g></g><g
       id="g4536"><g
         clip-path="url(#clipPath4540)"
         id="g4538"><text
   id="text4544"
   transform="matrix(1,0,0,-1,122.52,445.87)"><tspan
     id="tspan4546"
     sodipodi:role="line"
     y="0"
     x="0 9.33888 12.826368 20.020224 23.318016 29.154816 35.96928 43.732224 47.044608 54.238464 59.476992 66.46656 77.950464 81.248256 87.085056 94.278912 97.576704 103.413504 111.001344 118.764288 125.753856 128.891136 134.713344 141.702912 149.305344 157.068288 163.678464 169.894656 177.482496 180.780288 192.439296 199.428864 204.317184 211.540224 216.632832 220.091136 226.9056 230.582784 238.345728"
     style="fill:#595959;fill-opacity:1;fill-rule:nonzero;stroke:none;font-family:Calibri;font-variant:normal;font-weight:normal;font-size:14.592;writing-mode:lr;-inkscape-font-specification:Calibri">Nie zabieram ze sobą żadnych materiałów</tspan></text>

</g></g><path
       id="path4548"
       style="fill:none;stroke:#d9d9d9;stroke-opacity:1;stroke-width:1.2156;stroke-linecap:butt;stroke-linejoin:round;stroke-miterlimit:10;stroke-dasharray:none"
       d="m 51.253,103.4 739.44,0 0,388.2 -739.44,0 0,-388.2 z" /></g></svg>