<svg version="1.1" xmlns="http://www.w3.org/2000/svg" xmlns:xlink="http://www.w3.org/1999/xlink" width="666" height="518"><defs></defs><g><g transform="translate(-130,-246) scale(1,1)"><rect fill="#C0C0C0" stroke="none" x="301" y="323" width="270" height="96" opacity="0.2"></rect></g><g transform="translate(-130,-246) scale(1,1)"><rect fill="#ffffb9" stroke="none" x="294" y="316" width="270" height="96"></rect></g><g transform="translate(-130,-246) scale(1,1)"><path fill="none" stroke="#800000" d="M 294 316 L 564 316 L 564 412 L 294 412 L 294 316 Z Z" stroke-miterlimit="10"></path></g><g transform="translate(-130,-246) scale(1,1)"><rect fill="#ffffb9" stroke="none" x="284" y="323" width="20" height="10"></rect></g><g transform="translate(-130,-246) scale(1,1)"><path fill="none" stroke="#800000" d="M 284 323 L 304 323 L 304 333 L 284 333 L 284 323 Z Z" stroke-miterlimit="10"></path></g><g transform="translate(-130,-246) scale(1,1)"><rect fill="#ffffb9" stroke="none" x="284" y="343" width="20" height="10"></rect></g><g transform="translate(-130,-246) scale(1,1)"><path fill="none" stroke="#800000" d="M 284 343 L 304 343 L 304 353 L 284 353 L 284 343 Z Z" stroke-miterlimit="10"></path></g><g transform="translate(-130,-246) scale(1,1)"><g><path fill="none" stroke="none"></path><text fill="#000000" stroke="none" font-family="Arial" font-size="11px" font-style="normal" font-weight="bold" text-decoration="none" x="373" y="333.5">Menedżer użytkowników</text></g></g><g transform="translate(-130,-246) scale(1,1)"><rect fill="#C0C0C0" stroke="none" x="449" y="359" width="99" height="44" opacity="0.2"></rect></g><g transform="translate(-130,-246) scale(1,1)"><rect fill="#ffffb9" stroke="none" x="442" y="352" width="99" height="44"></rect></g><g transform="translate(-130,-246) scale(1,1)"><path fill="none" stroke="#800000" d="M 442 352 L 541 352 L 541 396 L 442 396 L 442 352 Z Z" stroke-miterlimit="10"></path></g><g transform="translate(-130,-246) scale(1,1)"><rect fill="#ffffb9" stroke="none" x="432" y="359" width="20" height="10"></rect></g><g transform="translate(-130,-246) scale(1,1)"><path fill="none" stroke="#800000" d="M 432 359 L 452 359 L 452 369 L 432 369 L 432 359 Z Z" stroke-miterlimit="10"></path></g><g transform="translate(-130,-246) scale(1,1)"><rect fill="#ffffb9" stroke="none" x="432" y="379" width="20" height="10"></rect></g><g transform="translate(-130,-246) scale(1,1)"><path fill="none" stroke="#800000" d="M 432 379 L 452 379 L 452 389 L 432 389 L 432 379 Z Z" stroke-miterlimit="10"></path></g><g transform="translate(-130,-246) scale(1,1)"><g><path fill="none" stroke="none"></path><text fill="#000000" stroke="none" font-family="Arial" font-size="11px" font-style="normal" font-weight="bold" text-decoration="none" x="469.5" y="369.5">Rejestracja</text></g></g><g transform="translate(-130,-246) scale(1,1)"><rect fill="#C0C0C0" stroke="none" x="325" y="359" width="99" height="44" opacity="0.2"></rect></g><g transform="translate(-130,-246) scale(1,1)"><rect fill="#ffffb9" stroke="none" x="318" y="352" width="99" height="44"></rect></g><g transform="translate(-130,-246) scale(1,1)"><path fill="none" stroke="#800000" d="M 318 352 L 417 352 L 417 396 L 318 396 L 318 352 Z Z" stroke-miterlimit="10"></path></g><g transform="translate(-130,-246) scale(1,1)"><rect fill="#ffffb9" stroke="none" x="308" y="359" width="20" height="10"></rect></g><g transform="translate(-130,-246) scale(1,1)"><path fill="none" stroke="#800000" d="M 308 359 L 328 359 L 328 369 L 308 369 L 308 359 Z Z" stroke-miterlimit="10"></path></g><g transform="translate(-130,-246) scale(1,1)"><rect fill="#ffffb9" stroke="none" x="308" y="379" width="20" height="10"></rect></g><g transform="translate(-130,-246) scale(1,1)"><path fill="none" stroke="#800000" d="M 308 379 L 328 379 L 328 389 L 308 389 L 308 379 Z Z" stroke-miterlimit="10"></path></g><g transform="translate(-130,-246) scale(1,1)"><g><path fill="none" stroke="none"></path><text fill="#000000" stroke="none" font-family="Arial" font-size="11px" font-style="normal" font-weight="bold" text-decoration="none" x="345.5" y="369.5">Logowanie</text></g></g><g transform="translate(-130,-246) scale(1,1)"><rect fill="#C0C0C0" stroke="none" x="213" y="263" width="82" height="44" opacity="0.2"></rect></g><g transform="translate(-130,-246) scale(1,1)"><rect fill="#ffffb9" stroke="none" x="206" y="256" width="82" height="44"></rect></g><g transform="translate(-130,-246) scale(1,1)"><path fill="none" stroke="#800000" d="M 206 256 L 288 256 L 288 300 L 206 300 L 206 256 Z Z" stroke-miterlimit="10"></path></g><g transform="translate(-130,-246) scale(1,1)"><rect fill="#ffffb9" stroke="none" x="196" y="263" width="20" height="10"></rect></g><g transform="translate(-130,-246) scale(1,1)"><path fill="none" stroke="#800000" d="M 196 263 L 216 263 L 216 273 L 196 273 L 196 263 Z Z" stroke-miterlimit="10"></path></g><g transform="translate(-130,-246) scale(1,1)"><rect fill="#ffffb9" stroke="none" x="196" y="283" width="20" height="10"></rect></g><g transform="translate(-130,-246) scale(1,1)"><path fill="none" stroke="#800000" d="M 196 283 L 216 283 L 216 293 L 196 293 L 196 283 Z Z" stroke-miterlimit="10"></path></g><g transform="translate(-130,-246) scale(1,1)"><g><path fill="none" stroke="none"></path><text fill="#000000" stroke="none" font-family="Arial" font-size="11px" font-style="normal" font-weight="bold" text-decoration="none" x="244" y="273.5">API</text></g></g><g transform="translate(-130,-246) scale(1,1)"><path fill="#C0C0C0" stroke="none" d="M 192.5 362.5 C 192.5 356.1487248 197.6487248 351 204 351 C 210.3512752 351 215.5 356.1487248 215.5 362.5 C 215.5 368.8512752 210.3512752 374 204 374 C 197.6487248 374 192.5 368.8512752 192.5 362.5 Z" opacity="0.2"></path></g><g transform="translate(-130,-246) scale(1,1)"><path fill="none" stroke="#000000" d="M 193.87820810224923 366.06817127384363 A 11.5 11.5 0 0 1 200.12179189775077 343.93182872615637" stroke-miterlimit="10"></path></g><g transform="translate(-130,-246) scale(1,1)"><path fill="#ffffff" stroke="none" d="M 188.5 355.5 C 188.5 350.8055792 192.3055792 347 197 347 C 201.6944208 347 205.5 350.8055792 205.5 355.5 C 205.5 360.1944208 201.6944208 364 197 364 C 192.3055792 364 188.5 360.1944208 188.5 355.5 Z"></path></g><g transform="translate(-130,-246) scale(1,1)"><path fill="none" stroke="#000000" d="M 188.5 355.5 C 188.5 350.8055792 192.3055792 347 197 347 C 201.6944208 347 205.5 350.8055792 205.5 355.5 C 205.5 360.1944208 201.6944208 364 197 364 C 192.3055792 364 188.5 360.1944208 188.5 355.5 Z" stroke-miterlimit="10"></path></g><g transform="translate(-130,-246) scale(1,1)"><g><path fill="none" stroke="none"></path><text fill="#000000" stroke="none" font-family="Arial" font-size="11px" font-style="normal" font-weight="bold" text-decoration="none" x="179.5" y="384.5">system</text><text fill="#000000" stroke="none" font-family="Arial" font-size="11px" font-style="normal" font-weight="bold" text-decoration="none" x="161.5" y="395.5">użytkowników</text></g></g><g transform="translate(-130,-246) scale(1,1)"><path fill="#C0C0C0" stroke="none" d="M 656 398.5 C 656 392.1487248 661.1487248 387 667.5 387 C 673.8512752 387 679 392.1487248 679 398.5 C 679 404.8512752 673.8512752 410 667.5 410 C 661.1487248 410 656 404.8512752 656 398.5 Z" opacity="0.2"></path></g><g transform="translate(-130,-246) scale(1,1)"><path fill="#ffffb9" stroke="none" d="M 649 391.5 C 649 385.1487248 654.1487248 380 660.5 380 C 666.8512752 380 672 385.1487248 672 391.5 C 672 397.8512752 666.8512752 403 660.5 403 C 654.1487248 403 649 397.8512752 649 391.5 Z"></path></g><g transform="translate(-130,-246) scale(1,1)"><path fill="none" stroke="#800000" d="M 649 391.5 C 649 385.1487248 654.1487248 380 660.5 380 C 666.8512752 380 672 385.1487248 672 391.5 C 672 397.8512752 666.8512752 403 660.5 403 C 654.1487248 403 649 397.8512752 649 391.5 Z" stroke-miterlimit="10"></path></g><g transform="translate(-130,-246) scale(1,1)"><g><path fill="none" stroke="none"></path><text fill="#000000" stroke="none" font-family="Arial" font-size="11px" font-style="normal" font-weight="bold" text-decoration="none" x="632.5" y="420.5">Użytkownik</text></g></g><g transform="translate(-130,-246) scale(1,1)"><path fill="none" stroke="#800000" d="M 564 391 L 649 391" stroke-miterlimit="10"></path></g><g transform="translate(-130,-246) scale(1,1)"><rect fill="#C0C0C0" stroke="none" x="301" y="491" width="330" height="264" opacity="0.2"></rect></g><g transform="translate(-130,-246) scale(1,1)"><rect fill="#ffffb9" stroke="none" x="294" y="484" width="330" height="264"></rect></g><g transform="translate(-130,-246) scale(1,1)"><path fill="none" stroke="#800000" d="M 294 484 L 624 484 L 624 748 L 294 748 L 294 484 Z Z" stroke-miterlimit="10"></path></g><g transform="translate(-130,-246) scale(1,1)"><rect fill="#ffffb9" stroke="none" x="284" y="491" width="20" height="10"></rect></g><g transform="translate(-130,-246) scale(1,1)"><path fill="none" stroke="#800000" d="M 284 491 L 304 491 L 304 501 L 284 501 L 284 491 Z Z" stroke-miterlimit="10"></path></g><g transform="translate(-130,-246) scale(1,1)"><rect fill="#ffffb9" stroke="none" x="284" y="511" width="20" height="10"></rect></g><g transform="translate(-130,-246) scale(1,1)"><path fill="none" stroke="#800000" d="M 284 511 L 304 511 L 304 521 L 284 521 L 284 511 Z Z" stroke-miterlimit="10"></path></g><g transform="translate(-130,-246) scale(1,1)"><g><path fill="none" stroke="none"></path><text fill="#000000" stroke="none" font-family="Arial" font-size="11px" font-style="normal" font-weight="bold" text-decoration="none" x="402" y="501.5">Menedżer przewodników</text></g></g><g transform="translate(-130,-246) scale(1,1)"><rect fill="#C0C0C0" stroke="none" x="331" y="519" width="88" height="69" opacity="0.2"></rect></g><g transform="translate(-130,-246) scale(1,1)"><rect fill="#ffffb9" stroke="none" x="324" y="512" width="88" height="69"></rect></g><g transform="translate(-130,-246) scale(1,1)"><path fill="none" stroke="#800000" d="M 324 512 L 412 512 L 412 581 L 324 581 L 324 512 Z Z" stroke-miterlimit="10"></path></g><g transform="translate(-130,-246) scale(1,1)"><rect fill="#ffffb9" stroke="none" x="324" y="512" width="88" height="69"></rect></g><g transform="translate(-130,-246) scale(1,1)"><path fill="none" stroke="#800000" d="M 324 512 L 412 512 L 412 581 L 324 581 L 324 512 Z Z" stroke-miterlimit="10"></path></g><g transform="translate(-130,-246) scale(1,1)"><path fill="none" stroke="#800000" d="M 324 535 L 412 535" stroke-miterlimit="10"></path></g><g transform="translate(-130,-246) scale(1,1)"><g><path fill="none" stroke="none"></path><text fill="#000000" stroke="none" font-family="Arial" font-size="11px" font-style="normal" font-weight="bold" text-decoration="none" x="349" y="529.5">kolekcja</text><path fill="none" stroke="#000000" d="M 387 529.5 L 349 529.5" stroke-miterlimit="10"></path></g></g><g transform="translate(-130,-246) scale(1,1)"><g><path fill="none" stroke="none"></path><text fill="#000000" stroke="none" font-family="Arial" font-size="11px" font-style="normal" font-weight="normal" text-decoration="none" x="329" y="550.5">dodawanie</text></g></g><g transform="translate(-130,-246) scale(1,1)"><g><path fill="none" stroke="none"></path><text fill="#000000" stroke="none" font-family="Arial" font-size="11px" font-style="normal" font-weight="normal" text-decoration="none" x="329" y="563.5">modyfikacja</text></g></g><g transform="translate(-130,-246) scale(1,1)"><g><path fill="none" stroke="none"></path><text fill="#000000" stroke="none" font-family="Arial" font-size="11px" font-style="normal" font-weight="normal" text-decoration="none" x="329" y="576.5">usuwanie</text></g></g><g transform="translate(-130,-246) scale(1,1)"><rect fill="#C0C0C0" stroke="none" x="451" y="519" width="101" height="69" opacity="0.2"></rect></g><g transform="translate(-130,-246) scale(1,1)"><rect fill="#ffffb9" stroke="none" x="444" y="512" width="101" height="69"></rect></g><g transform="translate(-130,-246) scale(1,1)"><path fill="none" stroke="#800000" d="M 444 512 L 545 512 L 545 581 L 444 581 L 444 512 Z Z" stroke-miterlimit="10"></path></g><g transform="translate(-130,-246) scale(1,1)"><rect fill="#ffffb9" stroke="none" x="444" y="512" width="101" height="69"></rect></g><g transform="translate(-130,-246) scale(1,1)"><path fill="none" stroke="#800000" d="M 444 512 L 545 512 L 545 581 L 444 581 L 444 512 Z Z" stroke-miterlimit="10"></path></g><g transform="translate(-130,-246) scale(1,1)"><path fill="none" stroke="#800000" d="M 444 535 L 545 535" stroke-miterlimit="10"></path></g><g transform="translate(-130,-246) scale(1,1)"><g><path fill="none" stroke="none"></path><text fill="#000000" stroke="none" font-family="Arial" font-size="11px" font-style="normal" font-weight="bold" text-decoration="none" x="478" y="529.5">odczyt</text><path fill="none" stroke="#000000" d="M 511 529.5 L 478 529.5" stroke-miterlimit="10"></path></g></g><g transform="translate(-130,-246) scale(1,1)"><g><path fill="none" stroke="none"></path><text fill="#000000" stroke="none" font-family="Arial" font-size="11px" font-style="normal" font-weight="normal" text-decoration="none" x="449" y="550.5">pobierz wszystkie</text></g></g><g transform="translate(-130,-246) scale(1,1)"><g><path fill="none" stroke="none"></path><text fill="#000000" stroke="none" font-family="Arial" font-size="11px" font-style="normal" font-weight="normal" text-decoration="none" x="449" y="563.5">pobierz posiadane</text></g></g><g transform="translate(-130,-246) scale(1,1)"><g><path fill="none" stroke="none"></path><text fill="#000000" stroke="none" font-family="Arial" font-size="11px" font-style="normal" font-weight="normal" text-decoration="none" x="449" y="576.5">pobierz stworzone</text></g></g><g transform="translate(-130,-246) scale(1,1)"><rect fill="#C0C0C0" stroke="none" x="331" y="615" width="120" height="54" opacity="0.2"></rect></g><g transform="translate(-130,-246) scale(1,1)"><rect fill="#ffffb9" stroke="none" x="324" y="608" width="120" height="54"></rect></g><g transform="translate(-130,-246) scale(1,1)"><path fill="none" stroke="#800000" d="M 324 608 L 444 608 L 444 662 L 324 662 L 324 608 Z Z" stroke-miterlimit="10"></path></g><g transform="translate(-130,-246) scale(1,1)"><rect fill="#ffffb9" stroke="none" x="324" y="608" width="120" height="54"></rect></g><g transform="translate(-130,-246) scale(1,1)"><path fill="none" stroke="#800000" d="M 324 608 L 444 608 L 444 662 L 324 662 L 324 608 Z Z" stroke-miterlimit="10"></path></g><g transform="translate(-130,-246) scale(1,1)"><path fill="none" stroke="#800000" d="M 324 642 L 444 642" stroke-miterlimit="10"></path></g><g transform="translate(-130,-246) scale(1,1)"><g><path fill="none" stroke="none"></path><text fill="#000000" stroke="none" font-family="Arial" font-size="11px" font-style="normal" font-weight="bold" text-decoration="none" x="330.5" y="625.5">Menedżer przesyłania</text><path fill="none" stroke="#000000" d="M 437.5 625.5 L 330.5 625.5" stroke-miterlimit="10"></path><text fill="#000000" stroke="none" font-family="Arial" font-size="11px" font-style="normal" font-weight="bold" text-decoration="none" x="368.5" y="636.5">plików</text><path fill="none" stroke="#000000" d="M 399.5 636.5 L 368.5 636.5" stroke-miterlimit="10"></path></g></g><g transform="translate(-130,-246) scale(1,1)"><g><path fill="none" stroke="none"></path><text fill="#000000" stroke="none" font-family="Arial" font-size="11px" font-style="normal" font-weight="normal" text-decoration="none" x="329" y="657.5">.</text></g></g><g transform="translate(-130,-246) scale(1,1)"><rect fill="#C0C0C0" stroke="none" x="471" y="615" width="128" height="54" opacity="0.2"></rect></g><g transform="translate(-130,-246) scale(1,1)"><rect fill="#ffffb9" stroke="none" x="464" y="608" width="128" height="54"></rect></g><g transform="translate(-130,-246) scale(1,1)"><path fill="none" stroke="#800000" d="M 464 608 L 592 608 L 592 662 L 464 662 L 464 608 Z Z" stroke-miterlimit="10"></path></g><g transform="translate(-130,-246) scale(1,1)"><rect fill="#ffffb9" stroke="none" x="464" y="608" width="128" height="54"></rect></g><g transform="translate(-130,-246) scale(1,1)"><path fill="none" stroke="#800000" d="M 464 608 L 592 608 L 592 662 L 464 662 L 464 608 Z Z" stroke-miterlimit="10"></path></g><g transform="translate(-130,-246) scale(1,1)"><path fill="none" stroke="#800000" d="M 464 631 L 592 631" stroke-miterlimit="10"></path></g><g transform="translate(-130,-246) scale(1,1)"><g><path fill="none" stroke="none"></path><text fill="#000000" stroke="none" font-family="Arial" font-size="11px" font-style="normal" font-weight="bold" text-decoration="none" x="477.5" y="625.5">Menedżer atrybutów</text><path fill="none" stroke="#000000" d="M 578.5 625.5 L 477.5 625.5" stroke-miterlimit="10"></path></g></g><g transform="translate(-130,-246) scale(1,1)"><g><path fill="none" stroke="none"></path><text fill="#000000" stroke="none" font-family="Arial" font-size="11px" font-style="normal" font-weight="normal" text-decoration="none" x="469" y="646.5">.</text></g></g><g transform="translate(-130,-246) scale(1,1)"><rect fill="#C0C0C0" stroke="none" x="331" y="683" width="120" height="54" opacity="0.2"></rect></g><g transform="translate(-130,-246) scale(1,1)"><rect fill="#ffffb9" stroke="none" x="324" y="676" width="120" height="54"></rect></g><g transform="translate(-130,-246) scale(1,1)"><path fill="none" stroke="#800000" d="M 324 676 L 444 676 L 444 730 L 324 730 L 324 676 Z Z" stroke-miterlimit="10"></path></g><g transform="translate(-130,-246) scale(1,1)"><rect fill="#ffffb9" stroke="none" x="324" y="676" width="120" height="54"></rect></g><g transform="translate(-130,-246) scale(1,1)"><path fill="none" stroke="#800000" d="M 324 676 L 444 676 L 444 730 L 324 730 L 324 676 Z Z" stroke-miterlimit="10"></path></g><g transform="translate(-130,-246) scale(1,1)"><path fill="none" stroke="#800000" d="M 324 699 L 444 699" stroke-miterlimit="10"></path></g><g transform="translate(-130,-246) scale(1,1)"><g><path fill="none" stroke="none"></path><text fill="#000000" stroke="none" font-family="Arial" font-size="11px" font-style="normal" font-weight="bold" text-decoration="none" x="349" y="693.5">Menedżer ikon</text><path fill="none" stroke="#000000" d="M 419 693.5 L 349 693.5" stroke-miterlimit="10"></path></g></g><g transform="translate(-130,-246) scale(1,1)"><g><path fill="none" stroke="none"></path><text fill="#000000" stroke="none" font-family="Arial" font-size="11px" font-style="normal" font-weight="normal" text-decoration="none" x="329" y="714.5">.</text></g></g><g transform="translate(-130,-246) scale(1,1)"><rect fill="#C0C0C0" stroke="none" x="471" y="683" width="128" height="54" opacity="0.2"></rect></g><g transform="translate(-130,-246) scale(1,1)"><rect fill="#ffffb9" stroke="none" x="464" y="676" width="128" height="54"></rect></g><g transform="translate(-130,-246) scale(1,1)"><path fill="none" stroke="#800000" d="M 464 676 L 592 676 L 592 730 L 464 730 L 464 676 Z Z" stroke-miterlimit="10"></path></g><g transform="translate(-130,-246) scale(1,1)"><rect fill="#ffffb9" stroke="none" x="464" y="676" width="128" height="54"></rect></g><g transform="translate(-130,-246) scale(1,1)"><path fill="none" stroke="#800000" d="M 464 676 L 592 676 L 592 730 L 464 730 L 464 676 Z Z" stroke-miterlimit="10"></path></g><g transform="translate(-130,-246) scale(1,1)"><path fill="none" stroke="#800000" d="M 464 699 L 592 699" stroke-miterlimit="10"></path></g><g transform="translate(-130,-246) scale(1,1)"><g><path fill="none" stroke="none"></path><text fill="#000000" stroke="none" font-family="Arial" font-size="11px" font-style="normal" font-weight="bold" text-decoration="none" x="487.5" y="693.5">Menedżer miejsc</text><path fill="none" stroke="#000000" d="M 568.5 693.5 L 487.5 693.5" stroke-miterlimit="10"></path></g></g><g transform="translate(-130,-246) scale(1,1)"><g><path fill="none" stroke="none"></path><text fill="#000000" stroke="none" font-family="Arial" font-size="11px" font-style="normal" font-weight="normal" text-decoration="none" x="469" y="714.5">.</text></g></g><g transform="translate(-130,-246) scale(1,1)"><rect fill="#C0C0C0" stroke="none" x="649" y="651" width="144" height="44" opacity="0.2"></rect></g><g transform="translate(-130,-246) scale(1,1)"><rect fill="#ffffb9" stroke="none" x="642" y="644" width="144" height="44"></rect></g><g transform="translate(-130,-246) scale(1,1)"><path fill="none" stroke="#800000" d="M 642 644 L 786 644 L 786 688 L 642 688 L 642 644 Z Z" stroke-miterlimit="10"></path></g><g transform="translate(-130,-246) scale(1,1)"><rect fill="#ffffb9" stroke="none" x="632" y="651" width="20" height="10"></rect></g><g transform="translate(-130,-246) scale(1,1)"><path fill="none" stroke="#800000" d="M 632 651 L 652 651 L 652 661 L 632 661 L 632 651 Z Z" stroke-miterlimit="10"></path></g><g transform="translate(-130,-246) scale(1,1)"><rect fill="#ffffb9" stroke="none" x="632" y="671" width="20" height="10"></rect></g><g transform="translate(-130,-246) scale(1,1)"><path fill="none" stroke="#800000" d="M 632 671 L 652 671 L 652 681 L 632 681 L 632 671 Z Z" stroke-miterlimit="10"></path></g><g transform="translate(-130,-246) scale(1,1)"><g><path fill="none" stroke="none"></path><text fill="#000000" stroke="none" font-family="Arial" font-size="11px" font-style="normal" font-weight="bold" text-decoration="none" x="662" y="661.5">Menadżer bazy danych</text></g></g><g transform="translate(-130,-246) scale(1,1)"><path fill="#C0C0C0" stroke="none" d="M 705 726.5 C 705 720.1487248 710.1487248 715 716.5 715 C 722.8512752 715 728 720.1487248 728 726.5 C 728 732.8512752 722.8512752 738 716.5 738 C 710.1487248 738 705 732.8512752 705 726.5 Z" opacity="0.2"></path></g><g transform="translate(-130,-246) scale(1,1)"><path fill="#ffffb9" stroke="none" d="M 698 719.5 C 698 713.1487248 703.1487248 708 709.5 708 C 715.8512752 708 721 713.1487248 721 719.5 C 721 725.8512752 715.8512752 731 709.5 731 C 703.1487248 731 698 725.8512752 698 719.5 Z"></path></g><g transform="translate(-130,-246) scale(1,1)"><path fill="none" stroke="#800000" d="M 698 719.5 C 698 713.1487248 703.1487248 708 709.5 708 C 715.8512752 708 721 713.1487248 721 719.5 C 721 725.8512752 715.8512752 731 709.5 731 C 703.1487248 731 698 725.8512752 698 719.5 Z" stroke-miterlimit="10"></path></g><g transform="translate(-130,-246) scale(1,1)"><g><path fill="none" stroke="none"></path><text fill="#000000" stroke="none" font-family="Arial" font-size="11px" font-style="normal" font-weight="bold" text-decoration="none" x="672" y="748.5">MS SQL Server</text></g></g><g transform="translate(-130,-246) scale(1,1)"><path fill="none" stroke="#800000" d="M 707.5846153846154 688 L 707.5846153846154 708" stroke-miterlimit="10"></path></g><g transform="translate(-130,-246) scale(1,1)"><path fill="#C0C0C0" stroke="none" d="M 685.5 588.5 C 685.5 578.835016 693.335016 571 703 571 C 712.664984 571 720.5 578.835016 720.5 588.5 C 720.5 598.164984 712.664984 606 703 606 C 693.335016 606 685.5 598.164984 685.5 588.5 Z" opacity="0.2"></path></g><g transform="translate(-130,-246) scale(1,1)"><path fill="none" stroke="#000000" d="M 698.1706078553111 598.3648628424892 A 17.5 17.5 0 0 1 693.8293921446889 563.6351371575108" stroke-miterlimit="10"></path></g><g transform="translate(-130,-246) scale(1,1)"><path fill="none" stroke="#000000" d="M 681.7030623928666 570.9080440420236 A 17.5 17.5 0 0 1 710.2969376071334 591.0919559579764" stroke-miterlimit="10"></path></g><g transform="translate(-130,-246) scale(1,1)"><path fill="#ffffff" stroke="none" d="M 681.5 581.5 C 681.5 573.4918704 687.9918704 567 696 567 C 704.0081296 567 710.5 573.4918704 710.5 581.5 C 710.5 589.5081296 704.0081296 596 696 596 C 687.9918704 596 681.5 589.5081296 681.5 581.5 Z"></path></g><g transform="translate(-130,-246) scale(1,1)"><path fill="none" stroke="#000000" d="M 681.5 581.5 C 681.5 573.4918704 687.9918704 567 696 567 C 704.0081296 567 710.5 573.4918704 710.5 581.5 C 710.5 589.5081296 704.0081296 596 696 596 C 687.9918704 596 681.5 589.5081296 681.5 581.5 Z" stroke-miterlimit="10"></path></g><g transform="translate(-130,-246) scale(1,1)"><g><path fill="none" stroke="none"></path><text fill="#000000" stroke="none" font-family="Arial" font-size="11px" font-style="normal" font-weight="bold" text-decoration="none" x="683.5" y="616.5">Baza</text><text fill="#000000" stroke="none" font-family="Arial" font-size="11px" font-style="normal" font-weight="bold" text-decoration="none" x="678" y="627.5">danych</text></g></g><g transform="translate(-130,-246) scale(1,1)"><path fill="none" stroke="#800000" d="M 696 644 L 696 599" stroke-miterlimit="10"></path></g><g transform="translate(-130,-246) scale(1,1)"><path fill="none" stroke="#800000" d="M 624 584 L 672 584" stroke-miterlimit="10" stroke-dasharray="3"></path></g><g transform="translate(-130,-246) scale(1,1)"><path fill="none" stroke="#800000" d="M 661.8373251423759 588.209517756016 L 672 584 L 661.8373251423758 579.790482243984" stroke-miterlimit="10"></path></g><g transform="translate(-130,-246) scale(1,1)"><path fill="none" stroke="#800000" d="M 483.6340425531915 412 L 483.6340425531915 456 L 708 456 L 708 564" stroke-miterlimit="10" stroke-dasharray="3"></path></g><g transform="translate(-130,-246) scale(1,1)"><path fill="none" stroke="#800000" d="M 703.790482243984 553.8373251423759 L 708 564 L 712.209517756016 553.8373251423759" stroke-miterlimit="10"></path></g><g transform="translate(-130,-246) scale(1,1)"><path fill="#C0C0C0" stroke="none" d="M 189.5 506.5 C 189.5 500.1487248 194.6487248 495 201 495 C 207.3512752 495 212.5 500.1487248 212.5 506.5 C 212.5 512.8512752 207.3512752 518 201 518 C 194.6487248 518 189.5 512.8512752 189.5 506.5 Z" opacity="0.2"></path></g><g transform="translate(-130,-246) scale(1,1)"><path fill="none" stroke="#000000" d="M 191.32540804795036 510.18465725402575 A 11.5 11.5 0 1 1 196.67459195204964 487.81534274597425" stroke-miterlimit="10"></path></g><g transform="translate(-130,-246) scale(1,1)"><path fill="#ffffff" stroke="none" d="M 185.5 499.5 C 185.5 494.8055792 189.3055792 491 194 491 C 198.6944208 491 202.5 494.8055792 202.5 499.5 C 202.5 504.1944208 198.6944208 508 194 508 C 189.3055792 508 185.5 504.1944208 185.5 499.5 Z"></path></g><g transform="translate(-130,-246) scale(1,1)"><path fill="none" stroke="#000000" d="M 185.5 499.5 C 185.5 494.8055792 189.3055792 491 194 491 C 198.6944208 491 202.5 494.8055792 202.5 499.5 C 202.5 504.1944208 198.6944208 508 194 508 C 189.3055792 508 185.5 504.1944208 185.5 499.5 Z" stroke-miterlimit="10"></path></g><g transform="translate(-130,-246) scale(1,1)"><g><path fill="none" stroke="none"></path><text fill="#000000" stroke="none" font-family="Arial" font-size="11px" font-style="normal" font-weight="bold" text-decoration="none" x="176" y="528.5">System</text><text fill="#000000" stroke="none" font-family="Arial" font-size="11px" font-style="normal" font-weight="bold" text-decoration="none" x="157.5" y="539.5">przewodników</text></g></g><g transform="translate(-130,-246) scale(1,1)"><path fill="none" stroke="#800000" d="M 284 550.6153846153846 L 264 550.6153846153846 L 264 499 L 205.5 499" stroke-miterlimit="10"></path></g><g transform="translate(-130,-246) scale(1,1)"><path fill="none" stroke="#800000" d="M 284 355 L 208.5 355" stroke-miterlimit="10"></path></g><g transform="translate(-130,-246) scale(1,1)"><path fill="none" stroke="#800000" d="M 196 288 L 158 288 L 158 344" stroke-miterlimit="10" stroke-dasharray="3"></path></g><g transform="translate(-130,-246) scale(1,1)"><path fill="none" stroke="#800000" d="M 153.790482243984 333.83732514237585 L 158 344 L 162.209517756016 333.83732514237585" stroke-miterlimit="10"></path></g><g transform="translate(-130,-246) scale(1,1)"><path fill="none" stroke="#800000" d="M 196 278 L 140 278 L 140 488 L 148 488" stroke-miterlimit="10" stroke-dasharray="3"></path></g><g transform="translate(-130,-246) scale(1,1)"><path fill="none" stroke="#800000" d="M 137.83732514237585 492.209517756016 L 148 488 L 137.83732514237585 483.790482243984" stroke-miterlimit="10"></path></g></g></svg>