<svg version="1.1" xmlns="http://www.w3.org/2000/svg" xmlns:xlink="http://www.w3.org/1999/xlink" width="540" height="606"><defs></defs><g><g transform="translate(-158,-234) scale(1,1)"><rect fill="#C0C0C0" stroke="none" x="301" y="323" width="270" height="96" opacity="0.2"></rect></g><g transform="translate(-158,-234) scale(1,1)"><rect fill="#ffffb9" stroke="none" x="294" y="316" width="270" height="96"></rect></g><g transform="translate(-158,-234) scale(1,1)"><path fill="none" stroke="#800000" d="M 294 316 L 564 316 L 564 412 L 294 412 L 294 316 Z Z" stroke-miterlimit="10"></path></g><g transform="translate(-158,-234) scale(1,1)"><rect fill="#ffffb9" stroke="none" x="284" y="323" width="20" height="10"></rect></g><g transform="translate(-158,-234) scale(1,1)"><path fill="none" stroke="#800000" d="M 284 323 L 304 323 L 304 333 L 284 333 L 284 323 Z Z" stroke-miterlimit="10"></path></g><g transform="translate(-158,-234) scale(1,1)"><rect fill="#ffffb9" stroke="none" x="284" y="343" width="20" height="10"></rect></g><g transform="translate(-158,-234) scale(1,1)"><path fill="none" stroke="#800000" d="M 284 343 L 304 343 L 304 353 L 284 353 L 284 343 Z Z" stroke-miterlimit="10"></path></g><g transform="translate(-158,-234) scale(1,1)"><g><path fill="none" stroke="none"></path><text fill="#000000" stroke="none" font-family="Arial" font-size="11px" font-style="normal" font-weight="bold" text-decoration="none" x="373" y="333.5">Menedżer użytkowników</text></g></g><g transform="translate(-158,-234) scale(1,1)"><rect fill="#C0C0C0" stroke="none" x="449" y="359" width="99" height="44" opacity="0.2"></rect></g><g transform="translate(-158,-234) scale(1,1)"><rect fill="#ffffb9" stroke="none" x="442" y="352" width="99" height="44"></rect></g><g transform="translate(-158,-234) scale(1,1)"><path fill="none" stroke="#800000" d="M 442 352 L 541 352 L 541 396 L 442 396 L 442 352 Z Z" stroke-miterlimit="10"></path></g><g transform="translate(-158,-234) scale(1,1)"><rect fill="#ffffb9" stroke="none" x="432" y="359" width="20" height="10"></rect></g><g transform="translate(-158,-234) scale(1,1)"><path fill="none" stroke="#800000" d="M 432 359 L 452 359 L 452 369 L 432 369 L 432 359 Z Z" stroke-miterlimit="10"></path></g><g transform="translate(-158,-234) scale(1,1)"><rect fill="#ffffb9" stroke="none" x="432" y="379" width="20" height="10"></rect></g><g transform="translate(-158,-234) scale(1,1)"><path fill="none" stroke="#800000" d="M 432 379 L 452 379 L 452 389 L 432 389 L 432 379 Z Z" stroke-miterlimit="10"></path></g><g transform="translate(-158,-234) scale(1,1)"><g><path fill="none" stroke="none"></path><text fill="#000000" stroke="none" font-family="Arial" font-size="11px" font-style="normal" font-weight="bold" text-decoration="none" x="469.5" y="369.5">Rejestracja</text></g></g><g transform="translate(-158,-234) scale(1,1)"><rect fill="#C0C0C0" stroke="none" x="325" y="359" width="99" height="44" opacity="0.2"></rect></g><g transform="translate(-158,-234) scale(1,1)"><rect fill="#ffffb9" stroke="none" x="318" y="352" width="99" height="44"></rect></g><g transform="translate(-158,-234) scale(1,1)"><path fill="none" stroke="#800000" d="M 318 352 L 417 352 L 417 396 L 318 396 L 318 352 Z Z" stroke-miterlimit="10"></path></g><g transform="translate(-158,-234) scale(1,1)"><rect fill="#ffffb9" stroke="none" x="308" y="359" width="20" height="10"></rect></g><g transform="translate(-158,-234) scale(1,1)"><path fill="none" stroke="#800000" d="M 308 359 L 328 359 L 328 369 L 308 369 L 308 359 Z Z" stroke-miterlimit="10"></path></g><g transform="translate(-158,-234) scale(1,1)"><rect fill="#ffffb9" stroke="none" x="308" y="379" width="20" height="10"></rect></g><g transform="translate(-158,-234) scale(1,1)"><path fill="none" stroke="#800000" d="M 308 379 L 328 379 L 328 389 L 308 389 L 308 379 Z Z" stroke-miterlimit="10"></path></g><g transform="translate(-158,-234) scale(1,1)"><g><path fill="none" stroke="none"></path><text fill="#000000" stroke="none" font-family="Arial" font-size="11px" font-style="normal" font-weight="bold" text-decoration="none" x="345.5" y="369.5">Logowanie</text></g></g><g transform="translate(-158,-234) scale(1,1)"><rect fill="#C0C0C0" stroke="none" x="305" y="251" width="82" height="44" opacity="0.2"></rect></g><g transform="translate(-158,-234) scale(1,1)"><rect fill="#ffffb9" stroke="none" x="298" y="244" width="82" height="44"></rect></g><g transform="translate(-158,-234) scale(1,1)"><path fill="none" stroke="#800000" d="M 298 244 L 380 244 L 380 288 L 298 288 L 298 244 Z Z" stroke-miterlimit="10"></path></g><g transform="translate(-158,-234) scale(1,1)"><rect fill="#ffffb9" stroke="none" x="288" y="251" width="20" height="10"></rect></g><g transform="translate(-158,-234) scale(1,1)"><path fill="none" stroke="#800000" d="M 288 251 L 308 251 L 308 261 L 288 261 L 288 251 Z Z" stroke-miterlimit="10"></path></g><g transform="translate(-158,-234) scale(1,1)"><rect fill="#ffffb9" stroke="none" x="288" y="271" width="20" height="10"></rect></g><g transform="translate(-158,-234) scale(1,1)"><path fill="none" stroke="#800000" d="M 288 271 L 308 271 L 308 281 L 288 281 L 288 271 Z Z" stroke-miterlimit="10"></path></g><g transform="translate(-158,-234) scale(1,1)"><g><path fill="none" stroke="none"></path><text fill="#000000" stroke="none" font-family="Arial" font-size="11px" font-style="normal" font-weight="bold" text-decoration="none" x="336" y="261.5">API</text></g></g><g transform="translate(-158,-234) scale(1,1)"><path fill="#C0C0C0" stroke="none" d="M 232.5 342.5 C 232.5 336.1487248 237.6487248 331 244 331 C 250.3512752 331 255.5 336.1487248 255.5 342.5 C 255.5 348.8512752 250.3512752 354 244 354 C 237.6487248 354 232.5 348.8512752 232.5 342.5 Z" opacity="0.2"></path></g><g transform="translate(-158,-234) scale(1,1)"><path fill="none" stroke="#000000" d="M 227.69953503051335 328.236025476737 A 11.5 11.5 0 0 1 246.30046496948665 341.763974523263" stroke-miterlimit="10"></path></g><g transform="translate(-158,-234) scale(1,1)"><path fill="#ffffff" stroke="none" d="M 228.5 335.5 C 228.5 330.8055792 232.3055792 327 237 327 C 241.6944208 327 245.5 330.8055792 245.5 335.5 C 245.5 340.1944208 241.6944208 344 237 344 C 232.3055792 344 228.5 340.1944208 228.5 335.5 Z"></path></g><g transform="translate(-158,-234) scale(1,1)"><path fill="none" stroke="#000000" d="M 228.5 335.5 C 228.5 330.8055792 232.3055792 327 237 327 C 241.6944208 327 245.5 330.8055792 245.5 335.5 C 245.5 340.1944208 241.6944208 344 237 344 C 232.3055792 344 228.5 340.1944208 228.5 335.5 Z" stroke-miterlimit="10"></path></g><g transform="translate(-158,-234) scale(1,1)"><g><path fill="none" stroke="none"></path><text fill="#000000" stroke="none" font-family="Arial" font-size="11px" font-style="normal" font-weight="bold" text-decoration="none" x="219.5" y="364.5">system</text><text fill="#000000" stroke="none" font-family="Arial" font-size="11px" font-style="normal" font-weight="bold" text-decoration="none" x="201.5" y="375.5">użytkowników</text></g></g><g transform="translate(-158,-234) scale(1,1)"><path fill="#C0C0C0" stroke="none" d="M 604 334.5 C 604 328.1487248 609.1487248 323 615.5 323 C 621.8512752 323 627 328.1487248 627 334.5 C 627 340.8512752 621.8512752 346 615.5 346 C 609.1487248 346 604 340.8512752 604 334.5 Z" opacity="0.2"></path></g><g transform="translate(-158,-234) scale(1,1)"><path fill="#ffffb9" stroke="none" d="M 597 327.5 C 597 321.1487248 602.1487248 316 608.5 316 C 614.8512752 316 620 321.1487248 620 327.5 C 620 333.8512752 614.8512752 339 608.5 339 C 602.1487248 339 597 333.8512752 597 327.5 Z"></path></g><g transform="translate(-158,-234) scale(1,1)"><path fill="none" stroke="#800000" d="M 597 327.5 C 597 321.1487248 602.1487248 316 608.5 316 C 614.8512752 316 620 321.1487248 620 327.5 C 620 333.8512752 614.8512752 339 608.5 339 C 602.1487248 339 597 333.8512752 597 327.5 Z" stroke-miterlimit="10"></path></g><g transform="translate(-158,-234) scale(1,1)"><g><path fill="none" stroke="none"></path><text fill="#000000" stroke="none" font-family="Arial" font-size="11px" font-style="normal" font-weight="bold" text-decoration="none" x="580.5" y="356.5">Użytkownik</text></g></g><g transform="translate(-158,-234) scale(1,1)"><path fill="none" stroke="#800000" d="M 564 327 L 597 327" stroke-miterlimit="10"></path></g><g transform="translate(-158,-234) scale(1,1)"><rect fill="#C0C0C0" stroke="none" x="301" y="491" width="330" height="264" opacity="0.2"></rect></g><g transform="translate(-158,-234) scale(1,1)"><rect fill="#ffffb9" stroke="none" x="294" y="484" width="330" height="264"></rect></g><g transform="translate(-158,-234) scale(1,1)"><path fill="none" stroke="#800000" d="M 294 484 L 624 484 L 624 748 L 294 748 L 294 484 Z Z" stroke-miterlimit="10"></path></g><g transform="translate(-158,-234) scale(1,1)"><rect fill="#ffffb9" stroke="none" x="284" y="491" width="20" height="10"></rect></g><g transform="translate(-158,-234) scale(1,1)"><path fill="none" stroke="#800000" d="M 284 491 L 304 491 L 304 501 L 284 501 L 284 491 Z Z" stroke-miterlimit="10"></path></g><g transform="translate(-158,-234) scale(1,1)"><rect fill="#ffffb9" stroke="none" x="284" y="511" width="20" height="10"></rect></g><g transform="translate(-158,-234) scale(1,1)"><path fill="none" stroke="#800000" d="M 284 511 L 304 511 L 304 521 L 284 521 L 284 511 Z Z" stroke-miterlimit="10"></path></g><g transform="translate(-158,-234) scale(1,1)"><g><path fill="none" stroke="none"></path><text fill="#000000" stroke="none" font-family="Arial" font-size="11px" font-style="normal" font-weight="bold" text-decoration="none" x="402" y="501.5">Menedżer przewodników</text></g></g><g transform="translate(-158,-234) scale(1,1)"><rect fill="#C0C0C0" stroke="none" x="331" y="519" width="88" height="69" opacity="0.2"></rect></g><g transform="translate(-158,-234) scale(1,1)"><rect fill="#ffffb9" stroke="none" x="324" y="512" width="88" height="69"></rect></g><g transform="translate(-158,-234) scale(1,1)"><path fill="none" stroke="#800000" d="M 324 512 L 412 512 L 412 581 L 324 581 L 324 512 Z Z" stroke-miterlimit="10"></path></g><g transform="translate(-158,-234) scale(1,1)"><rect fill="#ffffb9" stroke="none" x="324" y="512" width="88" height="69"></rect></g><g transform="translate(-158,-234) scale(1,1)"><path fill="none" stroke="#800000" d="M 324 512 L 412 512 L 412 581 L 324 581 L 324 512 Z Z" stroke-miterlimit="10"></path></g><g transform="translate(-158,-234) scale(1,1)"><path fill="none" stroke="#800000" d="M 324 535 L 412 535" stroke-miterlimit="10"></path></g><g transform="translate(-158,-234) scale(1,1)"><g><path fill="none" stroke="none"></path><text fill="#000000" stroke="none" font-family="Arial" font-size="11px" font-style="normal" font-weight="bold" text-decoration="none" x="349" y="529.5">kolekcja</text><path fill="none" stroke="#000000" d="M 387 529.5 L 349 529.5" stroke-miterlimit="10"></path></g></g><g transform="translate(-158,-234) scale(1,1)"><g><path fill="none" stroke="none"></path><text fill="#000000" stroke="none" font-family="Arial" font-size="11px" font-style="normal" font-weight="normal" text-decoration="none" x="329" y="550.5">dodawanie</text></g></g><g transform="translate(-158,-234) scale(1,1)"><g><path fill="none" stroke="none"></path><text fill="#000000" stroke="none" font-family="Arial" font-size="11px" font-style="normal" font-weight="normal" text-decoration="none" x="329" y="563.5">modyfikacja</text></g></g><g transform="translate(-158,-234) scale(1,1)"><g><path fill="none" stroke="none"></path><text fill="#000000" stroke="none" font-family="Arial" font-size="11px" font-style="normal" font-weight="normal" text-decoration="none" x="329" y="576.5">usuwanie</text></g></g><g transform="translate(-158,-234) scale(1,1)"><rect fill="#C0C0C0" stroke="none" x="451" y="519" width="101" height="69" opacity="0.2"></rect></g><g transform="translate(-158,-234) scale(1,1)"><rect fill="#ffffb9" stroke="none" x="444" y="512" width="101" height="69"></rect></g><g transform="translate(-158,-234) scale(1,1)"><path fill="none" stroke="#800000" d="M 444 512 L 545 512 L 545 581 L 444 581 L 444 512 Z Z" stroke-miterlimit="10"></path></g><g transform="translate(-158,-234) scale(1,1)"><rect fill="#ffffb9" stroke="none" x="444" y="512" width="101" height="69"></rect></g><g transform="translate(-158,-234) scale(1,1)"><path fill="none" stroke="#800000" d="M 444 512 L 545 512 L 545 581 L 444 581 L 444 512 Z Z" stroke-miterlimit="10"></path></g><g transform="translate(-158,-234) scale(1,1)"><path fill="none" stroke="#800000" d="M 444 535 L 545 535" stroke-miterlimit="10"></path></g><g transform="translate(-158,-234) scale(1,1)"><g><path fill="none" stroke="none"></path><text fill="#000000" stroke="none" font-family="Arial" font-size="11px" font-style="normal" font-weight="bold" text-decoration="none" x="478" y="529.5">odczyt</text><path fill="none" stroke="#000000" d="M 511 529.5 L 478 529.5" stroke-miterlimit="10"></path></g></g><g transform="translate(-158,-234) scale(1,1)"><g><path fill="none" stroke="none"></path><text fill="#000000" stroke="none" font-family="Arial" font-size="11px" font-style="normal" font-weight="normal" text-decoration="none" x="449" y="550.5">pobierz wszystkie</text></g></g><g transform="translate(-158,-234) scale(1,1)"><g><path fill="none" stroke="none"></path><text fill="#000000" stroke="none" font-family="Arial" font-size="11px" font-style="normal" font-weight="normal" text-decoration="none" x="449" y="563.5">pobierz posiadane</text></g></g><g transform="translate(-158,-234) scale(1,1)"><g><path fill="none" stroke="none"></path><text fill="#000000" stroke="none" font-family="Arial" font-size="11px" font-style="normal" font-weight="normal" text-decoration="none" x="449" y="576.5">pobierz stworzone</text></g></g><g transform="translate(-158,-234) scale(1,1)"><rect fill="#C0C0C0" stroke="none" x="331" y="615" width="120" height="54" opacity="0.2"></rect></g><g transform="translate(-158,-234) scale(1,1)"><rect fill="#ffffb9" stroke="none" x="324" y="608" width="120" height="54"></rect></g><g transform="translate(-158,-234) scale(1,1)"><path fill="none" stroke="#800000" d="M 324 608 L 444 608 L 444 662 L 324 662 L 324 608 Z Z" stroke-miterlimit="10"></path></g><g transform="translate(-158,-234) scale(1,1)"><rect fill="#ffffb9" stroke="none" x="324" y="608" width="120" height="54"></rect></g><g transform="translate(-158,-234) scale(1,1)"><path fill="none" stroke="#800000" d="M 324 608 L 444 608 L 444 662 L 324 662 L 324 608 Z Z" stroke-miterlimit="10"></path></g><g transform="translate(-158,-234) scale(1,1)"><path fill="none" stroke="#800000" d="M 324 642 L 444 642" stroke-miterlimit="10"></path></g><g transform="translate(-158,-234) scale(1,1)"><g><path fill="none" stroke="none"></path><text fill="#000000" stroke="none" font-family="Arial" font-size="11px" font-style="normal" font-weight="bold" text-decoration="none" x="330.5" y="625.5">Menedżer przesyłania</text><path fill="none" stroke="#000000" d="M 437.5 625.5 L 330.5 625.5" stroke-miterlimit="10"></path><text fill="#000000" stroke="none" font-family="Arial" font-size="11px" font-style="normal" font-weight="bold" text-decoration="none" x="368.5" y="636.5">plików</text><path fill="none" stroke="#000000" d="M 399.5 636.5 L 368.5 636.5" stroke-miterlimit="10"></path></g></g><g transform="translate(-158,-234) scale(1,1)"><g><path fill="none" stroke="none"></path><text fill="#000000" stroke="none" font-family="Arial" font-size="11px" font-style="normal" font-weight="normal" text-decoration="none" x="329" y="657.5">.</text></g></g><g transform="translate(-158,-234) scale(1,1)"><rect fill="#C0C0C0" stroke="none" x="471" y="615" width="128" height="54" opacity="0.2"></rect></g><g transform="translate(-158,-234) scale(1,1)"><rect fill="#ffffb9" stroke="none" x="464" y="608" width="128" height="54"></rect></g><g transform="translate(-158,-234) scale(1,1)"><path fill="none" stroke="#800000" d="M 464 608 L 592 608 L 592 662 L 464 662 L 464 608 Z Z" stroke-miterlimit="10"></path></g><g transform="translate(-158,-234) scale(1,1)"><rect fill="#ffffb9" stroke="none" x="464" y="608" width="128" height="54"></rect></g><g transform="translate(-158,-234) scale(1,1)"><path fill="none" stroke="#800000" d="M 464 608 L 592 608 L 592 662 L 464 662 L 464 608 Z Z" stroke-miterlimit="10"></path></g><g transform="translate(-158,-234) scale(1,1)"><path fill="none" stroke="#800000" d="M 464 631 L 592 631" stroke-miterlimit="10"></path></g><g transform="translate(-158,-234) scale(1,1)"><g><path fill="none" stroke="none"></path><text fill="#000000" stroke="none" font-family="Arial" font-size="11px" font-style="normal" font-weight="bold" text-decoration="none" x="477.5" y="625.5">Menedżer atrybutów</text><path fill="none" stroke="#000000" d="M 578.5 625.5 L 477.5 625.5" stroke-miterlimit="10"></path></g></g><g transform="translate(-158,-234) scale(1,1)"><g><path fill="none" stroke="none"></path><text fill="#000000" stroke="none" font-family="Arial" font-size="11px" font-style="normal" font-weight="normal" text-decoration="none" x="469" y="646.5">.</text></g></g><g transform="translate(-158,-234) scale(1,1)"><rect fill="#C0C0C0" stroke="none" x="331" y="683" width="120" height="54" opacity="0.2"></rect></g><g transform="translate(-158,-234) scale(1,1)"><rect fill="#ffffb9" stroke="none" x="324" y="676" width="120" height="54"></rect></g><g transform="translate(-158,-234) scale(1,1)"><path fill="none" stroke="#800000" d="M 324 676 L 444 676 L 444 730 L 324 730 L 324 676 Z Z" stroke-miterlimit="10"></path></g><g transform="translate(-158,-234) scale(1,1)"><rect fill="#ffffb9" stroke="none" x="324" y="676" width="120" height="54"></rect></g><g transform="translate(-158,-234) scale(1,1)"><path fill="none" stroke="#800000" d="M 324 676 L 444 676 L 444 730 L 324 730 L 324 676 Z Z" stroke-miterlimit="10"></path></g><g transform="translate(-158,-234) scale(1,1)"><path fill="none" stroke="#800000" d="M 324 699 L 444 699" stroke-miterlimit="10"></path></g><g transform="translate(-158,-234) scale(1,1)"><g><path fill="none" stroke="none"></path><text fill="#000000" stroke="none" font-family="Arial" font-size="11px" font-style="normal" font-weight="bold" text-decoration="none" x="349" y="693.5">Menedżer ikon</text><path fill="none" stroke="#000000" d="M 419 693.5 L 349 693.5" stroke-miterlimit="10"></path></g></g><g transform="translate(-158,-234) scale(1,1)"><g><path fill="none" stroke="none"></path><text fill="#000000" stroke="none" font-family="Arial" font-size="11px" font-style="normal" font-weight="normal" text-decoration="none" x="329" y="714.5">.</text></g></g><g transform="translate(-158,-234) scale(1,1)"><rect fill="#C0C0C0" stroke="none" x="471" y="683" width="128" height="54" opacity="0.2"></rect></g><g transform="translate(-158,-234) scale(1,1)"><rect fill="#ffffb9" stroke="none" x="464" y="676" width="128" height="54"></rect></g><g transform="translate(-158,-234) scale(1,1)"><path fill="none" stroke="#800000" d="M 464 676 L 592 676 L 592 730 L 464 730 L 464 676 Z Z" stroke-miterlimit="10"></path></g><g transform="translate(-158,-234) scale(1,1)"><rect fill="#ffffb9" stroke="none" x="464" y="676" width="128" height="54"></rect></g><g transform="translate(-158,-234) scale(1,1)"><path fill="none" stroke="#800000" d="M 464 676 L 592 676 L 592 730 L 464 730 L 464 676 Z Z" stroke-miterlimit="10"></path></g><g transform="translate(-158,-234) scale(1,1)"><path fill="none" stroke="#800000" d="M 464 699 L 592 699" stroke-miterlimit="10"></path></g><g transform="translate(-158,-234) scale(1,1)"><g><path fill="none" stroke="none"></path><text fill="#000000" stroke="none" font-family="Arial" font-size="11px" font-style="normal" font-weight="bold" text-decoration="none" x="487.5" y="693.5">Menedżer miejsc</text><path fill="none" stroke="#000000" d="M 568.5 693.5 L 487.5 693.5" stroke-miterlimit="10"></path></g></g><g transform="translate(-158,-234) scale(1,1)"><g><path fill="none" stroke="none"></path><text fill="#000000" stroke="none" font-family="Arial" font-size="11px" font-style="normal" font-weight="normal" text-decoration="none" x="469" y="714.5">.</text></g></g><g transform="translate(-158,-234) scale(1,1)"><rect fill="#C0C0C0" stroke="none" x="485" y="791" width="144" height="44" opacity="0.2"></rect></g><g transform="translate(-158,-234) scale(1,1)"><rect fill="#ffffb9" stroke="none" x="478" y="784" width="144" height="44"></rect></g><g transform="translate(-158,-234) scale(1,1)"><path fill="none" stroke="#800000" d="M 478 784 L 622 784 L 622 828 L 478 828 L 478 784 Z Z" stroke-miterlimit="10"></path></g><g transform="translate(-158,-234) scale(1,1)"><rect fill="#ffffb9" stroke="none" x="468" y="791" width="20" height="10"></rect></g><g transform="translate(-158,-234) scale(1,1)"><path fill="none" stroke="#800000" d="M 468 791 L 488 791 L 488 801 L 468 801 L 468 791 Z Z" stroke-miterlimit="10"></path></g><g transform="translate(-158,-234) scale(1,1)"><rect fill="#ffffb9" stroke="none" x="468" y="811" width="20" height="10"></rect></g><g transform="translate(-158,-234) scale(1,1)"><path fill="none" stroke="#800000" d="M 468 811 L 488 811 L 488 821 L 468 821 L 468 811 Z Z" stroke-miterlimit="10"></path></g><g transform="translate(-158,-234) scale(1,1)"><g><path fill="none" stroke="none"></path><text fill="#000000" stroke="none" font-family="Arial" font-size="11px" font-style="normal" font-weight="bold" text-decoration="none" x="498" y="801.5">Menadżer bazy danych</text></g></g><g transform="translate(-158,-234) scale(1,1)"><path fill="#C0C0C0" stroke="none" d="M 397 802.5 C 397 796.1487248 402.1487248 791 408.5 791 C 414.8512752 791 420 796.1487248 420 802.5 C 420 808.8512752 414.8512752 814 408.5 814 C 402.1487248 814 397 808.8512752 397 802.5 Z" opacity="0.2"></path></g><g transform="translate(-158,-234) scale(1,1)"><path fill="#ffffb9" stroke="none" d="M 390 795.5 C 390 789.1487248 395.1487248 784 401.5 784 C 407.8512752 784 413 789.1487248 413 795.5 C 413 801.8512752 407.8512752 807 401.5 807 C 395.1487248 807 390 801.8512752 390 795.5 Z"></path></g><g transform="translate(-158,-234) scale(1,1)"><path fill="none" stroke="#800000" d="M 390 795.5 C 390 789.1487248 395.1487248 784 401.5 784 C 407.8512752 784 413 789.1487248 413 795.5 C 413 801.8512752 407.8512752 807 401.5 807 C 395.1487248 807 390 801.8512752 390 795.5 Z" stroke-miterlimit="10"></path></g><g transform="translate(-158,-234) scale(1,1)"><g><path fill="none" stroke="none"></path><text fill="#000000" stroke="none" font-family="Arial" font-size="11px" font-style="normal" font-weight="bold" text-decoration="none" x="364" y="824.5">MS SQL Server</text></g></g><g transform="translate(-158,-234) scale(1,1)"><path fill="none" stroke="#800000" d="M 468 795 L 413 795" stroke-miterlimit="10"></path></g><g transform="translate(-158,-234) scale(1,1)"><path fill="#C0C0C0" stroke="none" d="M 653.5 720.5 C 653.5 710.835016 661.335016 703 671 703 C 680.664984 703 688.5 710.835016 688.5 720.5 C 688.5 730.164984 680.664984 738 671 738 C 661.335016 738 653.5 730.164984 653.5 720.5 Z" opacity="0.2"></path></g><g transform="translate(-158,-234) scale(1,1)"><path fill="none" stroke="#000000" d="M 653.8846965363441 727.2804284192789 A 17.5 17.5 0 1 1 674.115303463656 698.7195715807211" stroke-miterlimit="10"></path></g><g transform="translate(-158,-234) scale(1,1)"><path fill="none" stroke="#000000" d="M 646.5 713 A 17.5 17.5 0 0 1 681.5 713" stroke-miterlimit="10"></path></g><g transform="translate(-158,-234) scale(1,1)"><path fill="#ffffff" stroke="none" d="M 649.5 713.5 C 649.5 705.4918704 655.9918704 699 664 699 C 672.0081296 699 678.5 705.4918704 678.5 713.5 C 678.5 721.5081296 672.0081296 728 664 728 C 655.9918704 728 649.5 721.5081296 649.5 713.5 Z"></path></g><g transform="translate(-158,-234) scale(1,1)"><path fill="none" stroke="#000000" d="M 649.5 713.5 C 649.5 705.4918704 655.9918704 699 664 699 C 672.0081296 699 678.5 705.4918704 678.5 713.5 C 678.5 721.5081296 672.0081296 728 664 728 C 655.9918704 728 649.5 721.5081296 649.5 713.5 Z" stroke-miterlimit="10"></path></g><g transform="translate(-158,-234) scale(1,1)"><g><path fill="none" stroke="none"></path><text fill="#000000" stroke="none" font-family="Arial" font-size="11px" font-style="normal" font-weight="bold" text-decoration="none" x="651.5" y="748.5">Baza</text><text fill="#000000" stroke="none" font-family="Arial" font-size="11px" font-style="normal" font-weight="bold" text-decoration="none" x="646" y="759.5">danych</text></g></g><g transform="translate(-158,-234) scale(1,1)"><path fill="none" stroke="#800000" d="M 622 806 L 664 806 L 664 731" stroke-miterlimit="10"></path></g><g transform="translate(-158,-234) scale(1,1)"><path fill="none" stroke="#800000" d="M 624 696 L 640 696" stroke-miterlimit="10" stroke-dasharray="3"></path></g><g transform="translate(-158,-234) scale(1,1)"><path fill="none" stroke="#800000" d="M 629.8373251423759 700.209517756016 L 640 696 L 629.8373251423758 691.790482243984" stroke-miterlimit="10"></path></g><g transform="translate(-158,-234) scale(1,1)"><path fill="none" stroke="#800000" d="M 444 412 L 444 468 L 664 468 L 664 696" stroke-miterlimit="10" stroke-dasharray="3"></path></g><g transform="translate(-158,-234) scale(1,1)"><path fill="none" stroke="#800000" d="M 659.790482243984 685.8373251423759 L 664 696 L 668.209517756016 685.8373251423759" stroke-miterlimit="10"></path></g><g transform="translate(-158,-234) scale(1,1)"><path fill="#C0C0C0" stroke="none" d="M 209.5 514.5 C 209.5 508.1487248 214.6487248 503 221 503 C 227.3512752 503 232.5 508.1487248 232.5 514.5 C 232.5 520.8512752 227.3512752 526 221 526 C 214.6487248 526 209.5 520.8512752 209.5 514.5 Z" opacity="0.2"></path></g><g transform="translate(-158,-234) scale(1,1)"><path fill="none" stroke="#000000" d="M 208.0033248912793 516.8127410869976 A 11.5 11.5 0 0 1 219.9966751087207 497.1872589130025" stroke-miterlimit="10"></path></g><g transform="translate(-158,-234) scale(1,1)"><path fill="#ffffff" stroke="none" d="M 205.5 507.5 C 205.5 502.8055792 209.3055792 499 214 499 C 218.6944208 499 222.5 502.8055792 222.5 507.5 C 222.5 512.1944208 218.6944208 516 214 516 C 209.3055792 516 205.5 512.1944208 205.5 507.5 Z"></path></g><g transform="translate(-158,-234) scale(1,1)"><path fill="none" stroke="#000000" d="M 205.5 507.5 C 205.5 502.8055792 209.3055792 499 214 499 C 218.6944208 499 222.5 502.8055792 222.5 507.5 C 222.5 512.1944208 218.6944208 516 214 516 C 209.3055792 516 205.5 512.1944208 205.5 507.5 Z" stroke-miterlimit="10"></path></g><g transform="translate(-158,-234) scale(1,1)"><g><path fill="none" stroke="none"></path><text fill="#000000" stroke="none" font-family="Arial" font-size="11px" font-style="normal" font-weight="bold" text-decoration="none" x="196" y="536.5">System</text><text fill="#000000" stroke="none" font-family="Arial" font-size="11px" font-style="normal" font-weight="bold" text-decoration="none" x="177.5" y="547.5">przewodników</text></g></g><g transform="translate(-158,-234) scale(1,1)"><path fill="none" stroke="#800000" d="M 284 507 L 225.5 507" stroke-miterlimit="10"></path></g><g transform="translate(-158,-234) scale(1,1)"><path fill="none" stroke="#800000" d="M 288 280 L 245 280 L 245 324" stroke-miterlimit="10" stroke-dasharray="3"></path></g><g transform="translate(-158,-234) scale(1,1)"><path fill="none" stroke="#800000" d="M 240.790482243984 313.83732514237585 L 245 324 L 249.209517756016 313.83732514237585" stroke-miterlimit="10"></path></g><g transform="translate(-158,-234) scale(1,1)"><path fill="none" stroke="#800000" d="M 288 266 L 196 266 L 196 496" stroke-miterlimit="10" stroke-dasharray="3"></path></g><g transform="translate(-158,-234) scale(1,1)"><path fill="none" stroke="#800000" d="M 191.790482243984 485.83732514237585 L 196 496 L 200.209517756016 485.83732514237585" stroke-miterlimit="10"></path></g><g transform="translate(-158,-234) scale(1,1)"><path fill="none" stroke="#800000" d="M 284 335 L 248.5 335" stroke-miterlimit="10"></path></g></g></svg>