<svg version="1.1" xmlns="http://www.w3.org/2000/svg" xmlns:xlink="http://www.w3.org/1999/xlink" width="588" height="815"><defs></defs><g><g transform="translate(-82,-38) scale(1,1)"><rect fill="#C0C0C0" stroke="none" x="191" y="55" width="392" height="436" opacity="0.2"></rect></g><g transform="translate(-82,-38) scale(1,1)"><rect fill="#ffffff" stroke="none" x="184" y="48" width="392" height="436"></rect></g><g transform="translate(-82,-38) scale(1,1)"><path fill="none" stroke="#000000" d="M 184 48 L 576 48 L 576 484 L 184 484 L 184 48 Z Z" stroke-miterlimit="10"></path></g><g transform="translate(-82,-38) scale(1,1)"><g><path fill="none" stroke="none"></path><text fill="#000000" stroke="none" font-family="Arial" font-size="13px" font-style="normal" font-weight="bold" text-decoration="none" x="318.5" y="67.5">Aplikacja Internetowa</text></g></g><g transform="translate(-82,-38) scale(1,1)"><rect fill="#C0C0C0" stroke="none" x="191" y="503" width="391" height="347" opacity="0.2"></rect></g><g transform="translate(-82,-38) scale(1,1)"><rect fill="#ffffff" stroke="none" x="184" y="496" width="391" height="347"></rect></g><g transform="translate(-82,-38) scale(1,1)"><path fill="none" stroke="#000000" d="M 184 496 L 575 496 L 575 843 L 184 843 L 184 496 Z Z" stroke-miterlimit="10"></path></g><g transform="translate(-82,-38) scale(1,1)"><g><path fill="none" stroke="none"></path><text fill="#000000" stroke="none" font-family="Arial" font-size="13px" font-style="normal" font-weight="bold" text-decoration="none" x="328.5" y="515.5">Aplikacja mobilna</text></g></g><g transform="translate(-82,-38) scale(1,1)"><path fill="#FFFFB9" stroke="none" d="M 612.9992727272727 594.02 C 612.9992727272727 589.038391104 617.0290351383272 585 622 585 C 626.9709648616728 585 631.0007272727273 589.038391104 631.0007272727273 594.02 C 631.0007272727273 599.001608896 626.9709648616728 603.04 622 603.04 C 617.0290351383272 603.04 612.9992727272727 599.001608896 612.9992727272727 594.02 Z"></path></g><g transform="translate(-82,-38) scale(1,1)"><path fill="none" stroke="#800000" d="M 612.9992727272727 594.02 C 612.9992727272727 589.038391104 617.0290351383272 585 622 585 C 626.9709648616728 585 631.0007272727273 589.038391104 631.0007272727273 594.02 C 631.0007272727273 599.001608896 626.9709648616728 603.04 622 603.04 C 617.0290351383272 603.04 612.9992727272727 599.001608896 612.9992727272727 594.02 Z" stroke-miterlimit="10"></path></g><g transform="translate(-82,-38) scale(1,1)"><path fill="none" stroke="#800000" d="M 622 603.04 L 622 620.96" stroke-miterlimit="10"></path></g><g transform="translate(-82,-38) scale(1,1)"><path fill="none" stroke="#800000" d="M 612.4698181818181 609.76 L 631.5301818181819 609.76" stroke-miterlimit="10"></path></g><g transform="translate(-82,-38) scale(1,1)"><path fill="none" stroke="#800000" d="M 622 620.96 L 608.7636363636364 639" stroke-miterlimit="10"></path></g><g transform="translate(-82,-38) scale(1,1)"><path fill="none" stroke="#800000" d="M 622 620.96 L 635.2363636363636 639" stroke-miterlimit="10"></path></g><g transform="translate(-82,-38) scale(1,1)"><g><path fill="none" stroke="none"></path><text fill="#000000" stroke="none" font-family="Arial" font-size="11px" font-style="normal" font-weight="bold" text-decoration="none" x="594" y="657.5">Użytkownik</text><text fill="#000000" stroke="none" font-family="Arial" font-size="11px" font-style="normal" font-weight="bold" text-decoration="none" x="598.5" y="668.5">podróżnik</text></g></g><g transform="translate(-82,-38) scale(1,1)"><path fill="#FFFFB9" stroke="none" d="M 123.49927272727273 182.01999999999998 C 123.49927272727273 177.03839110399997 127.52903513832727 173 132.5 173 C 137.47096486167274 173 141.5007272727273 177.03839110399997 141.5007272727273 182.01999999999998 C 141.5007272727273 187.001608896 137.47096486167274 191.04 132.5 191.04 C 127.52903513832727 191.04 123.49927272727273 187.001608896 123.49927272727273 182.01999999999998 Z"></path></g><g transform="translate(-82,-38) scale(1,1)"><path fill="none" stroke="#800000" d="M 123.49927272727273 182.01999999999998 C 123.49927272727273 177.03839110399997 127.52903513832727 173 132.5 173 C 137.47096486167274 173 141.5007272727273 177.03839110399997 141.5007272727273 182.01999999999998 C 141.5007272727273 187.001608896 137.47096486167274 191.04 132.5 191.04 C 127.52903513832727 191.04 123.49927272727273 187.001608896 123.49927272727273 182.01999999999998 Z" stroke-miterlimit="10"></path></g><g transform="translate(-82,-38) scale(1,1)"><path fill="none" stroke="#800000" d="M 132.5 191.04 L 132.5 208.96" stroke-miterlimit="10"></path></g><g transform="translate(-82,-38) scale(1,1)"><path fill="none" stroke="#800000" d="M 122.96981818181817 197.76 L 142.03018181818183 197.76" stroke-miterlimit="10"></path></g><g transform="translate(-82,-38) scale(1,1)"><path fill="none" stroke="#800000" d="M 132.5 208.96 L 119.26363636363635 227" stroke-miterlimit="10"></path></g><g transform="translate(-82,-38) scale(1,1)"><path fill="none" stroke="#800000" d="M 132.5 208.96 L 145.73636363636365 227" stroke-miterlimit="10"></path></g><g transform="translate(-82,-38) scale(1,1)"><g><path fill="none" stroke="none"></path><text fill="#000000" stroke="none" font-family="Arial" font-size="11px" font-style="normal" font-weight="bold" text-decoration="none" x="113.5" y="245.5">Twórca</text><text fill="#000000" stroke="none" font-family="Arial" font-size="11px" font-style="normal" font-weight="bold" text-decoration="none" x="101" y="256.5">przewodnika</text></g></g><g transform="translate(-82,-38) scale(1,1)"><path fill="#C0C0C0" stroke="none" d="M 387 255 C 387 237.3268864 421.9217856 223 465 223 C 508.0782144 223 543 237.3268864 543 255 C 543 272.6731136 508.0782144 287 465 287 C 421.9217856 287 387 272.6731136 387 255 Z" opacity="0.2"></path></g><g transform="translate(-82,-38) scale(1,1)"><path fill="#FFFFB9" stroke="none" d="M 380 248 C 380 230.3268864 414.9217856 216 458 216 C 501.0782144 216 536 230.3268864 536 248 C 536 265.6731136 501.0782144 280 458 280 C 414.9217856 280 380 265.6731136 380 248 Z"></path></g><g transform="translate(-82,-38) scale(1,1)"><path fill="none" stroke="#800000" d="M 380 248 C 380 230.3268864 414.9217856 216 458 216 C 501.0782144 216 536 230.3268864 536 248 C 536 265.6731136 501.0782144 280 458 280 C 414.9217856 280 380 265.6731136 380 248 Z" stroke-miterlimit="10"></path></g><g transform="translate(-82,-38) scale(1,1)"><g><path fill="none" stroke="none"></path><text fill="#000000" stroke="none" font-family="Arial" font-size="11px" font-style="normal" font-weight="bold" text-decoration="none" x="432" y="248.5">Tworzenie</text><text fill="#000000" stroke="none" font-family="Arial" font-size="11px" font-style="normal" font-weight="bold" text-decoration="none" x="426.5" y="259.5">przewodnika</text></g></g><g transform="translate(-82,-38) scale(1,1)"><path fill="#C0C0C0" stroke="none" d="M 195 143 C 195 123.1177472 232.6080768 107 279 107 C 325.3919232 107 363 123.1177472 363 143 C 363 162.8822528 325.3919232 179 279 179 C 232.6080768 179 195 162.8822528 195 143 Z" opacity="0.2"></path></g><g transform="translate(-82,-38) scale(1,1)"><path fill="#FFFFB9" stroke="none" d="M 188 136 C 188 116.1177472 225.6080768 100 272 100 C 318.3919232 100 356 116.1177472 356 136 C 356 155.8822528 318.3919232 172 272 172 C 225.6080768 172 188 155.8822528 188 136 Z"></path></g><g transform="translate(-82,-38) scale(1,1)"><path fill="none" stroke="#800000" d="M 188 136 C 188 116.1177472 225.6080768 100 272 100 C 318.3919232 100 356 116.1177472 356 136 C 356 155.8822528 318.3919232 172 272 172 C 225.6080768 172 188 155.8822528 188 136 Z" stroke-miterlimit="10"></path></g><g transform="translate(-82,-38) scale(1,1)"><g><path fill="none" stroke="none"></path><text fill="#000000" stroke="none" font-family="Arial" font-size="11px" font-style="normal" font-weight="bold" text-decoration="none" x="244.5" y="131">Dodawanie</text><text fill="#000000" stroke="none" font-family="Arial" font-size="11px" font-style="normal" font-weight="bold" text-decoration="none" x="233.5" y="142">podstawowych</text><text fill="#000000" stroke="none" font-family="Arial" font-size="11px" font-style="normal" font-weight="bold" text-decoration="none" x="249" y="153">informacji</text></g></g><g transform="translate(-82,-38) scale(1,1)"><path fill="#C0C0C0" stroke="none" d="M 463 157 C 463 142.6405952 487.1766208 131 517 131 C 546.8233792 131 571 142.6405952 571 157 C 571 171.3594048 546.8233792 183 517 183 C 487.1766208 183 463 171.3594048 463 157 Z" opacity="0.2"></path></g><g transform="translate(-82,-38) scale(1,1)"><path fill="#FFFFB9" stroke="none" d="M 456 150 C 456 135.6405952 480.1766208 124 510 124 C 539.8233792 124 564 135.6405952 564 150 C 564 164.3594048 539.8233792 176 510 176 C 480.1766208 176 456 164.3594048 456 150 Z"></path></g><g transform="translate(-82,-38) scale(1,1)"><path fill="none" stroke="#800000" d="M 456 150 C 456 135.6405952 480.1766208 124 510 124 C 539.8233792 124 564 135.6405952 564 150 C 564 164.3594048 539.8233792 176 510 176 C 480.1766208 176 456 164.3594048 456 150 Z" stroke-miterlimit="10"></path></g><g transform="translate(-82,-38) scale(1,1)"><g><path fill="none" stroke="none"></path><text fill="#000000" stroke="none" font-family="Arial" font-size="11px" font-style="normal" font-weight="bold" text-decoration="none" x="482.5" y="150.5">Dodawanie</text><text fill="#000000" stroke="none" font-family="Arial" font-size="11px" font-style="normal" font-weight="bold" text-decoration="none" x="495" y="161.5">miejsc</text></g></g><g transform="translate(-82,-38) scale(1,1)"><path fill="#C0C0C0" stroke="none" d="M 367 115.5 C 367 101.9690224 392.0720512 91 423 91 C 453.9279488 91 479 101.9690224 479 115.5 C 479 129.0309776 453.9279488 140 423 140 C 392.0720512 140 367 129.0309776 367 115.5 Z" opacity="0.2"></path></g><g transform="translate(-82,-38) scale(1,1)"><path fill="#FFFFB9" stroke="none" d="M 360 108.5 C 360 94.9690224 385.0720512 84 416 84 C 446.9279488 84 472 94.9690224 472 108.5 C 472 122.0309776 446.9279488 133 416 133 C 385.0720512 133 360 122.0309776 360 108.5 Z"></path></g><g transform="translate(-82,-38) scale(1,1)"><path fill="none" stroke="#800000" d="M 360 108.5 C 360 94.9690224 385.0720512 84 416 84 C 446.9279488 84 472 94.9690224 472 108.5 C 472 122.0309776 446.9279488 133 416 133 C 385.0720512 133 360 122.0309776 360 108.5 Z" stroke-miterlimit="10"></path></g><g transform="translate(-82,-38) scale(1,1)"><g><path fill="none" stroke="none"></path><text fill="#000000" stroke="none" font-family="Arial" font-size="11px" font-style="normal" font-weight="bold" text-decoration="none" x="388.5" y="109">Dodawanie</text><text fill="#000000" stroke="none" font-family="Arial" font-size="11px" font-style="normal" font-weight="bold" text-decoration="none" x="391" y="120">atrybutów</text></g></g><g transform="translate(-82,-38) scale(1,1)"><path fill="none" stroke="#800000" d="M 448.1 215 L 423.8 134" stroke-miterlimit="10" stroke-dasharray="3"></path></g><g transform="translate(-82,-38) scale(1,1)"><path fill="none" stroke="#800000" d="M 430.75220988685385 142.52448108034335 L 423.8 134 L 422.6882363772193 144.94367313323372" stroke-miterlimit="10"></path></g><g transform="translate(-82,-38) scale(1,1)"><g><path fill="none" stroke="none"></path><text fill="#000000" stroke="none" font-family="Arial" font-size="11px" font-style="normal" font-weight="normal" text-decoration="none" x="383" y="188">«include»</text></g></g><g transform="translate(-82,-38) scale(1,1)"><path fill="#C0C0C0" stroke="none" d="M 243 307 C 243 287.1177472 266.505048 271 295.5 271 C 324.494952 271 348 287.1177472 348 307 C 348 326.8822528 324.494952 343 295.5 343 C 266.505048 343 243 326.8822528 243 307 Z" opacity="0.2"></path></g><g transform="translate(-82,-38) scale(1,1)"><path fill="#FFFFB9" stroke="none" d="M 236 300 C 236 280.1177472 259.505048 264 288.5 264 C 317.494952 264 341 280.1177472 341 300 C 341 319.8822528 317.494952 336 288.5 336 C 259.505048 336 236 319.8822528 236 300 Z"></path></g><g transform="translate(-82,-38) scale(1,1)"><path fill="none" stroke="#800000" d="M 236 300 C 236 280.1177472 259.505048 264 288.5 264 C 317.494952 264 341 280.1177472 341 300 C 341 319.8822528 317.494952 336 288.5 336 C 259.505048 336 236 319.8822528 236 300 Z" stroke-miterlimit="10"></path></g><g transform="translate(-82,-38) scale(1,1)"><g><path fill="none" stroke="none"></path><text fill="#000000" stroke="none" font-family="Arial" font-size="11px" font-style="normal" font-weight="bold" text-decoration="none" x="265" y="300.5">Publikacja</text><text fill="#000000" stroke="none" font-family="Arial" font-size="11px" font-style="normal" font-weight="bold" text-decoration="none" x="260" y="311.5">przewonika</text></g></g><g transform="translate(-82,-38) scale(1,1)"><path fill="none" stroke="#800000" d="M 342 283.4823529411765 L 379 272.16470588235296" stroke-miterlimit="10" stroke-dasharray="3"></path></g><g transform="translate(-82,-38) scale(1,1)"><path fill="none" stroke="#800000" d="M 370.51310013267664 279.16274351029034 L 379 272.16470588235296 L 368.05049569085133 271.11192129663056" stroke-miterlimit="10"></path></g><g transform="translate(-82,-38) scale(1,1)"><g><path fill="none" stroke="none"></path><text fill="#000000" stroke="none" font-family="Arial" font-size="11px" font-style="normal" font-weight="normal" text-decoration="none" x="330" y="253">«extend»</text></g></g><g transform="translate(-82,-38) scale(1,1)"><path fill="none" stroke="#800000" d="M 403.19642857142856 215 L 333.44642857142856 173" stroke-miterlimit="10" stroke-dasharray="3"></path></g><g transform="translate(-82,-38) scale(1,1)"><path fill="none" stroke="#800000" d="M 344.32405811667167 174.63620765077476 L 333.44642857142856 173 L 339.98110066081296 181.8486191399687" stroke-miterlimit="10"></path></g><g transform="translate(-82,-38) scale(1,1)"><g><path fill="none" stroke="none"></path><text fill="#000000" stroke="none" font-family="Arial" font-size="11px" font-style="normal" font-weight="normal" text-decoration="none" x="329" y="225">«include»</text></g></g><g transform="translate(-82,-38) scale(1,1)"><path fill="none" stroke="#800000" d="M 475.51020408163265 215 L 495.6734693877551 177" stroke-miterlimit="10" stroke-dasharray="3"></path></g><g transform="translate(-82,-38) scale(1,1)"><path fill="none" stroke="#800000" d="M 494.6285364289827 187.95025639479147 L 495.6734693877551 177 L 487.19158965423344 184.0041213714551" stroke-miterlimit="10"></path></g><g transform="translate(-82,-38) scale(1,1)"><g><path fill="none" stroke="none"></path><text fill="#000000" stroke="none" font-family="Arial" font-size="11px" font-style="normal" font-weight="normal" text-decoration="none" x="440" y="190">«include»</text></g></g><g transform="translate(-82,-38) scale(1,1)"><path fill="none" stroke="#800000" d="M 174 220.99386503067484 L 379 240.48773006134968" stroke-miterlimit="10"></path></g><g transform="translate(-82,-38) scale(1,1)"><path fill="none" stroke="#800000" d="M 174 239.34615384615384 L 235 271.80128205128204" stroke-miterlimit="10"></path></g><g transform="translate(-82,-38) scale(1,1)"><path fill="#C0C0C0" stroke="none" d="M 327 551.5 C 327 537.9690224 369.0852288 527 421 527 C 472.9147712 527 515 537.9690224 515 551.5 C 515 565.0309776 472.9147712 576 421 576 C 369.0852288 576 327 565.0309776 327 551.5 Z" opacity="0.2"></path></g><g transform="translate(-82,-38) scale(1,1)"><path fill="#FFFFB9" stroke="none" d="M 320 544.5 C 320 530.9690224 362.0852288 520 414 520 C 465.9147712 520 508 530.9690224 508 544.5 C 508 558.0309776 465.9147712 569 414 569 C 362.0852288 569 320 558.0309776 320 544.5 Z"></path></g><g transform="translate(-82,-38) scale(1,1)"><path fill="none" stroke="#800000" d="M 320 544.5 C 320 530.9690224 362.0852288 520 414 520 C 465.9147712 520 508 530.9690224 508 544.5 C 508 558.0309776 465.9147712 569 414 569 C 362.0852288 569 320 558.0309776 320 544.5 Z" stroke-miterlimit="10"></path></g><g transform="translate(-82,-38) scale(1,1)"><g><path fill="none" stroke="none"></path><text fill="#000000" stroke="none" font-family="Arial" font-size="11px" font-style="normal" font-weight="bold" text-decoration="none" x="360" y="550.5">Pobranie przewodnika</text></g></g><g transform="translate(-82,-38) scale(1,1)"><path fill="#C0C0C0" stroke="none" d="M 311 651.5 C 311 637.9690224 356.6669504 627 413 627 C 469.3330496 627 515 637.9690224 515 651.5 C 515 665.0309776 469.3330496 676 413 676 C 356.6669504 676 311 665.0309776 311 651.5 Z" opacity="0.2"></path></g><g transform="translate(-82,-38) scale(1,1)"><path fill="#FFFFB9" stroke="none" d="M 304 644.5 C 304 630.9690224 349.6669504 620 406 620 C 462.3330496 620 508 630.9690224 508 644.5 C 508 658.0309776 462.3330496 669 406 669 C 349.6669504 669 304 658.0309776 304 644.5 Z"></path></g><g transform="translate(-82,-38) scale(1,1)"><path fill="none" stroke="#800000" d="M 304 644.5 C 304 630.9690224 349.6669504 620 406 620 C 462.3330496 620 508 630.9690224 508 644.5 C 508 658.0309776 462.3330496 669 406 669 C 349.6669504 669 304 658.0309776 304 644.5 Z" stroke-miterlimit="10"></path></g><g transform="translate(-82,-38) scale(1,1)"><g><path fill="none" stroke="none"></path><text fill="#000000" stroke="none" font-family="Arial" font-size="11px" font-style="normal" font-weight="bold" text-decoration="none" x="345.5" y="650.5">Odczytanie przewodnika</text></g></g><g transform="translate(-82,-38) scale(1,1)"><path fill="none" stroke="#800000" d="M 583 613.0625 L 477.6235294117647 570" stroke-miterlimit="10"></path></g><g transform="translate(-82,-38) scale(1,1)"><path fill="none" stroke="#800000" d="M 583 631.7083333333334 L 509 636.8472222222223" stroke-miterlimit="10"></path></g><g transform="translate(-82,-38) scale(1,1)"><path fill="none" stroke="#800000" d="M 408 619 L 411.92 570" stroke-miterlimit="10" stroke-dasharray="3"></path></g><g transform="translate(-82,-38) scale(1,1)"><path fill="none" stroke="#800000" d="M 415.3056868489559 580.4659984980319 L 411.92 570 L 406.9134636200242 579.7946206397174" stroke-miterlimit="10"></path></g><g transform="translate(-82,-38) scale(1,1)"><g><path fill="none" stroke="none"></path><text fill="#000000" stroke="none" font-family="Arial" font-size="11px" font-style="normal" font-weight="normal" text-decoration="none" x="357" y="596">«extend»</text></g></g><g transform="translate(-82,-38) scale(1,1)"><path fill="#C0C0C0" stroke="none" d="M 199 739.5 C 199 725.9690224 231.2354944 715 271 715 C 310.7645056 715 343 725.9690224 343 739.5 C 343 753.0309776 310.7645056 764 271 764 C 231.2354944 764 199 753.0309776 199 739.5 Z" opacity="0.2"></path></g><g transform="translate(-82,-38) scale(1,1)"><path fill="#FFFFB9" stroke="none" d="M 192 732.5 C 192 718.9690224 224.2354944 708 264 708 C 303.7645056 708 336 718.9690224 336 732.5 C 336 746.0309776 303.7645056 757 264 757 C 224.2354944 757 192 746.0309776 192 732.5 Z"></path></g><g transform="translate(-82,-38) scale(1,1)"><path fill="none" stroke="#800000" d="M 192 732.5 C 192 718.9690224 224.2354944 708 264 708 C 303.7645056 708 336 718.9690224 336 732.5 C 336 746.0309776 303.7645056 757 264 757 C 224.2354944 757 192 746.0309776 192 732.5 Z" stroke-miterlimit="10"></path></g><g transform="translate(-82,-38) scale(1,1)"><g><path fill="none" stroke="none"></path><text fill="#000000" stroke="none" font-family="Arial" font-size="11px" font-style="normal" font-weight="bold" text-decoration="none" x="236.5" y="733">Odczytanie</text><text fill="#000000" stroke="none" font-family="Arial" font-size="11px" font-style="normal" font-weight="bold" text-decoration="none" x="239" y="744">atrybutów</text></g></g><g transform="translate(-82,-38) scale(1,1)"><path fill="#C0C0C0" stroke="none" d="M 411 739.5 C 411 725.9690224 445.4740704 715 488 715 C 530.5259296 715 565 725.9690224 565 739.5 C 565 753.0309776 530.5259296 764 488 764 C 445.4740704 764 411 753.0309776 411 739.5 Z" opacity="0.2"></path></g><g transform="translate(-82,-38) scale(1,1)"><path fill="#FFFFB9" stroke="none" d="M 404 732.5 C 404 718.9690224 438.4740704 708 481 708 C 523.5259296 708 558 718.9690224 558 732.5 C 558 746.0309776 523.5259296 757 481 757 C 438.4740704 757 404 746.0309776 404 732.5 Z"></path></g><g transform="translate(-82,-38) scale(1,1)"><path fill="none" stroke="#800000" d="M 404 732.5 C 404 718.9690224 438.4740704 708 481 708 C 523.5259296 708 558 718.9690224 558 732.5 C 558 746.0309776 523.5259296 757 481 757 C 438.4740704 757 404 746.0309776 404 732.5 Z" stroke-miterlimit="10"></path></g><g transform="translate(-82,-38) scale(1,1)"><g><path fill="none" stroke="none"></path><text fill="#000000" stroke="none" font-family="Arial" font-size="11px" font-style="normal" font-weight="bold" text-decoration="none" x="437" y="738.5">Odczytanie miejsc</text></g></g><g transform="translate(-82,-38) scale(1,1)"><path fill="none" stroke="#800000" d="M 364.04545454545456 670 L 304.3409090909091 707" stroke-miterlimit="10" stroke-dasharray="3"></path></g><g transform="translate(-82,-38) scale(1,1)"><path fill="none" stroke="#800000" d="M 310.7618496080326 698.0685094818635 L 304.3409090909091 707 L 315.19671718364026 705.2247730697759" stroke-miterlimit="10"></path></g><g transform="translate(-82,-38) scale(1,1)"><g><path fill="none" stroke="none"></path><text fill="#000000" stroke="none" font-family="Arial" font-size="11px" font-style="normal" font-weight="normal" text-decoration="none" x="268" y="686">«include»</text></g></g><g transform="translate(-82,-38) scale(1,1)"><path fill="none" stroke="#800000" d="M 428.15909090909093 670 L 459.6931818181818 707" stroke-miterlimit="10" stroke-dasharray="3"></path></g><g transform="translate(-82,-38) scale(1,1)"><path fill="none" stroke="#800000" d="M 449.89734066101585 701.9958521181351 L 459.6931818181818 707 L 456.30494300985043 696.5348273890147" stroke-miterlimit="10"></path></g><g transform="translate(-82,-38) scale(1,1)"><g><path fill="none" stroke="none"></path><text fill="#000000" stroke="none" font-family="Arial" font-size="11px" font-style="normal" font-weight="normal" text-decoration="none" x="464" y="689">«include»</text></g></g><g transform="translate(-82,-38) scale(1,1)"><path fill="#C0C0C0" stroke="none" d="M 239 396.5 C 239 380.2075984 264.9674816 367 297 367 C 329.0325184 367 355 380.2075984 355 396.5 C 355 412.7924016 329.0325184 426 297 426 C 264.9674816 426 239 412.7924016 239 396.5 Z" opacity="0.2"></path></g><g transform="translate(-82,-38) scale(1,1)"><path fill="#ffffb9" stroke="none" d="M 232 389.5 C 232 373.2075984 257.9674816 360 290 360 C 322.0325184 360 348 373.2075984 348 389.5 C 348 405.7924016 322.0325184 419 290 419 C 257.9674816 419 232 405.7924016 232 389.5 Z"></path></g><g transform="translate(-82,-38) scale(1,1)"><path fill="none" stroke="#800000" d="M 232 389.5 C 232 373.2075984 257.9674816 360 290 360 C 322.0325184 360 348 373.2075984 348 389.5 C 348 405.7924016 322.0325184 419 290 419 C 257.9674816 419 232 405.7924016 232 389.5 Z" stroke-miterlimit="10"></path></g><g transform="translate(-82,-38) scale(1,1)"><g><path fill="none" stroke="none"></path><text fill="#000000" stroke="none" font-family="Arial" font-size="11px" font-style="normal" font-weight="bold" text-decoration="none" x="274" y="390">Edycja</text><text fill="#000000" stroke="none" font-family="Arial" font-size="11px" font-style="normal" font-weight="bold" text-decoration="none" x="258.5" y="401">przewodnika</text></g></g><g transform="translate(-82,-38) scale(1,1)"><path fill="none" stroke="#800000" d="M 174 262.72151898734177 L 262.4418604651163 359" stroke-miterlimit="10"></path></g><g transform="translate(-82,-38) scale(1,1)"><path fill="#C0C0C0" stroke="none" d="M 507 405 C 507 390.6405952 523.1177472 379 543 379 C 562.8822528 379 579 390.6405952 579 405 C 579 419.3594048 562.8822528 431 543 431 C 523.1177472 431 507 419.3594048 507 405 Z" opacity="0.2"></path></g><g transform="translate(-82,-38) scale(1,1)"><path fill="#ffffb9" stroke="none" d="M 500 398 C 500 383.6405952 516.1177472 372 536 372 C 555.8822528 372 572 383.6405952 572 398 C 572 412.3594048 555.8822528 424 536 424 C 516.1177472 424 500 412.3594048 500 398 Z"></path></g><g transform="translate(-82,-38) scale(1,1)"><path fill="none" stroke="#800000" d="M 500 398 C 500 383.6405952 516.1177472 372 536 372 C 555.8822528 372 572 383.6405952 572 398 C 572 412.3594048 555.8822528 424 536 424 C 516.1177472 424 500 412.3594048 500 398 Z" stroke-miterlimit="10"></path></g><g transform="translate(-82,-38) scale(1,1)"><g><path fill="none" stroke="none"></path><text fill="#000000" stroke="none" font-family="Arial" font-size="11px" font-style="normal" font-weight="bold" text-decoration="none" x="520" y="398.5">Edycja</text><text fill="#000000" stroke="none" font-family="Arial" font-size="11px" font-style="normal" font-weight="bold" text-decoration="none" x="521" y="409.5">miejsc</text></g></g><g transform="translate(-82,-38) scale(1,1)"><path fill="#C0C0C0" stroke="none" d="M 375 455.5 C 375 439.7598832 397.8334752 427 426 427 C 454.1665248 427 477 439.7598832 477 455.5 C 477 471.2401168 454.1665248 484 426 484 C 397.8334752 484 375 471.2401168 375 455.5 Z" opacity="0.2"></path></g><g transform="translate(-82,-38) scale(1,1)"><path fill="#ffffb9" stroke="none" d="M 368 448.5 C 368 432.7598832 390.8334752 420 419 420 C 447.1665248 420 470 432.7598832 470 448.5 C 470 464.2401168 447.1665248 477 419 477 C 390.8334752 477 368 464.2401168 368 448.5 Z"></path></g><g transform="translate(-82,-38) scale(1,1)"><path fill="none" stroke="#800000" d="M 368 448.5 C 368 432.7598832 390.8334752 420 419 420 C 447.1665248 420 470 432.7598832 470 448.5 C 470 464.2401168 447.1665248 477 419 477 C 390.8334752 477 368 464.2401168 368 448.5 Z" stroke-miterlimit="10"></path></g><g transform="translate(-82,-38) scale(1,1)"><g><path fill="none" stroke="none"></path><text fill="#000000" stroke="none" font-family="Arial" font-size="11px" font-style="normal" font-weight="bold" text-decoration="none" x="403" y="449">Edycja</text><text fill="#000000" stroke="none" font-family="Arial" font-size="11px" font-style="normal" font-weight="bold" text-decoration="none" x="394" y="460">atrybutów</text></g></g><g transform="translate(-82,-38) scale(1,1)"><path fill="#C0C0C0" stroke="none" d="M 403 332 C 403 314.8791712 432.3253456 301 468.5 301 C 504.6746544 301 534 314.8791712 534 332 C 534 349.1208288 504.6746544 363 468.5 363 C 432.3253456 363 403 349.1208288 403 332 Z" opacity="0.2"></path></g><g transform="translate(-82,-38) scale(1,1)"><path fill="#ffffb9" stroke="none" d="M 396 325 C 396 307.8791712 425.3253456 294 461.5 294 C 497.6746544 294 527 307.8791712 527 325 C 527 342.1208288 497.6746544 356 461.5 356 C 425.3253456 356 396 342.1208288 396 325 Z"></path></g><g transform="translate(-82,-38) scale(1,1)"><path fill="none" stroke="#800000" d="M 396 325 C 396 307.8791712 425.3253456 294 461.5 294 C 497.6746544 294 527 307.8791712 527 325 C 527 342.1208288 497.6746544 356 461.5 356 C 425.3253456 356 396 342.1208288 396 325 Z" stroke-miterlimit="10"></path></g><g transform="translate(-82,-38) scale(1,1)"><g><path fill="none" stroke="none"></path><text fill="#000000" stroke="none" font-family="Arial" font-size="11px" font-style="normal" font-weight="bold" text-decoration="none" x="445.5" y="320">Edycja</text><text fill="#000000" stroke="none" font-family="Arial" font-size="11px" font-style="normal" font-weight="bold" text-decoration="none" x="423" y="331">podstawowych</text><text fill="#000000" stroke="none" font-family="Arial" font-size="11px" font-style="normal" font-weight="bold" text-decoration="none" x="438.5" y="342">informacji</text></g></g><g transform="translate(-82,-38) scale(1,1)"><path fill="none" stroke="#800000" d="M 349 366.91812865497076 L 395 349.70175438596493" stroke-miterlimit="10" stroke-dasharray="3"></path></g><g transform="translate(-82,-38) scale(1,1)"><path fill="none" stroke="#800000" d="M 386.9576390180208 357.20644823951676 L 395 349.70175438596493 L 384.0065720983169 349.32156631343287" stroke-miterlimit="10"></path></g><g transform="translate(-82,-38) scale(1,1)"><g><path fill="none" stroke="none"></path><text fill="#000000" stroke="none" font-family="Arial" font-size="13px" font-style="normal" font-weight="normal" text-decoration="none" x="332" y="352">«include»</text></g></g><g transform="translate(-82,-38) scale(1,1)"><path fill="none" stroke="#800000" d="M 349 391.1585365853659 L 499 396.6463414634146" stroke-miterlimit="10" stroke-dasharray="3"></path></g><g transform="translate(-82,-38) scale(1,1)"><path fill="none" stroke="#800000" d="M 488.6902158542412 400.4814882491141 L 499 396.6463414634146 L 488.99802341895054 392.0680814803929" stroke-miterlimit="10"></path></g><g transform="translate(-82,-38) scale(1,1)"><g><path fill="none" stroke="none"></path><text fill="#000000" stroke="none" font-family="Arial" font-size="13px" font-style="normal" font-weight="normal" text-decoration="none" x="388" y="388">«include»</text></g></g><g transform="translate(-82,-38) scale(1,1)"><path fill="none" stroke="#800000" d="M 349 415.984496124031 L 367 424.2170542635659" stroke-miterlimit="10" stroke-dasharray="3"></path></g><g transform="translate(-82,-38) scale(1,1)"><path fill="none" stroke="#800000" d="M 356.0072313887319 423.8182582516517 L 367 424.2170542635659 L 359.5089301352924 416.1620016701889" stroke-miterlimit="10"></path></g><g transform="translate(-82,-38) scale(1,1)"><g><path fill="none" stroke="none"></path><text fill="#000000" stroke="none" font-family="Arial" font-size="13px" font-style="normal" font-weight="normal" text-decoration="none" x="307" y="436">«include»</text></g></g><g transform="translate(-82,-38) scale(1,1)"><path fill="#C0C0C0" stroke="none" d="M 267 813 C 267 798.6405952 300.1309248 787 341 787 C 381.8690752 787 415 798.6405952 415 813 C 415 827.3594048 381.8690752 839 341 839 C 300.1309248 839 267 827.3594048 267 813 Z" opacity="0.2"></path></g><g transform="translate(-82,-38) scale(1,1)"><path fill="#ffffb9" stroke="none" d="M 260 806 C 260 791.6405952 293.1309248 780 334 780 C 374.8690752 780 408 791.6405952 408 806 C 408 820.3594048 374.8690752 832 334 832 C 293.1309248 832 260 820.3594048 260 806 Z"></path></g><g transform="translate(-82,-38) scale(1,1)"><path fill="none" stroke="#800000" d="M 260 806 C 260 791.6405952 293.1309248 780 334 780 C 374.8690752 780 408 791.6405952 408 806 C 408 820.3594048 374.8690752 832 334 832 C 293.1309248 832 260 820.3594048 260 806 Z" stroke-miterlimit="10"></path></g><g transform="translate(-82,-38) scale(1,1)"><g><path fill="none" stroke="none"></path><text fill="#000000" stroke="none" font-family="Arial" font-size="11px" font-style="normal" font-weight="bold" text-decoration="none" x="298" y="806.5">Zlokalizowanie</text><text fill="#000000" stroke="none" font-family="Arial" font-size="11px" font-style="normal" font-weight="bold" text-decoration="none" x="319" y="817.5">miejsc</text></g></g><g transform="translate(-82,-38) scale(1,1)"><path fill="#C0C0C0" stroke="none" d="M 427 813 C 427 798.6405952 460.1309248 787 501 787 C 541.8690752 787 575 798.6405952 575 813 C 575 827.3594048 541.8690752 839 501 839 C 460.1309248 839 427 827.3594048 427 813 Z" opacity="0.2"></path></g><g transform="translate(-82,-38) scale(1,1)"><path fill="#ffffb9" stroke="none" d="M 420 806 C 420 791.6405952 453.1309248 780 494 780 C 534.8690752 780 568 791.6405952 568 806 C 568 820.3594048 534.8690752 832 494 832 C 453.1309248 832 420 820.3594048 420 806 Z"></path></g><g transform="translate(-82,-38) scale(1,1)"><path fill="none" stroke="#800000" d="M 420 806 C 420 791.6405952 453.1309248 780 494 780 C 534.8690752 780 568 791.6405952 568 806 C 568 820.3594048 534.8690752 832 494 832 C 453.1309248 832 420 820.3594048 420 806 Z" stroke-miterlimit="10"></path></g><g transform="translate(-82,-38) scale(1,1)"><g><path fill="none" stroke="none"></path><text fill="#000000" stroke="none" font-family="Arial" font-size="11px" font-style="normal" font-weight="bold" text-decoration="none" x="458" y="806.5">Zlokalizowanie</text><text fill="#000000" stroke="none" font-family="Arial" font-size="11px" font-style="normal" font-weight="bold" text-decoration="none" x="459.5" y="817.5">swojej pozycji</text></g></g><g transform="translate(-82,-38) scale(1,1)"><path fill="none" stroke="#000000" d="M 485.56756756756755 758 L 489.2567567567568 779" stroke-miterlimit="10" stroke-dasharray="3"></path></g><g transform="translate(-82,-38) scale(1,1)"><path fill="none" stroke="#000000" d="M 483.3523230526166 769.7189622006257 L 489.2567567567568 779 L 491.6443764098791 768.2622501243499" stroke-miterlimit="10"></path></g><g transform="translate(-82,-38) scale(1,1)"><g><path fill="none" stroke="none"></path><text fill="#000000" stroke="none" font-family="Arial" font-size="13px" font-style="normal" font-weight="normal" text-decoration="none" x="500" y="773">«include»</text></g></g><g transform="translate(-82,-38) scale(1,1)"><path fill="none" stroke="#000000" d="M 429.35135135135135 758 L 387.63513513513516 779" stroke-miterlimit="10" stroke-dasharray="3"></path></g><g transform="translate(-82,-38) scale(1,1)"><path fill="none" stroke="#000000" d="M 394.8197462596976 770.6704524139175 L 387.63513513513516 779 L 398.60530196383655 778.1904076640313" stroke-miterlimit="10"></path></g><g transform="translate(-82,-38) scale(1,1)"><g><path fill="none" stroke="none"></path><text fill="#000000" stroke="none" font-family="Arial" font-size="13px" font-style="normal" font-weight="normal" text-decoration="none" x="356" y="764">«include»</text></g></g></g></svg>