<svg version="1.1" xmlns="http://www.w3.org/2000/svg" xmlns:xlink="http://www.w3.org/1999/xlink" width="291" height="151"><defs></defs><g><g transform="translate(-98,-210) scale(1,1)"><path fill="#C0C0C0" stroke="none" d="M 115 244 C 115 234.6111584 137.1619024 227 164.5 227 C 191.8380976 227 214 234.6111584 214 244 C 214 253.3888416 191.8380976 261 164.5 261 C 137.1619024 261 115 253.3888416 115 244 Z" opacity="0.2"></path></g><g transform="translate(-98,-210) scale(1,1)"><path fill="#ffffff" stroke="none" d="M 108 237 C 108 227.6111584 130.1619024 220 157.5 220 C 184.8380976 220 207 227.6111584 207 237 C 207 246.3888416 184.8380976 254 157.5 254 C 130.1619024 254 108 246.3888416 108 237 Z"></path></g><g transform="translate(-98,-210) scale(1,1)"><path fill="none" stroke="#000000" d="M 108 237 C 108 227.6111584 130.1619024 220 157.5 220 C 184.8380976 220 207 227.6111584 207 237 C 207 246.3888416 184.8380976 254 157.5 254 C 130.1619024 254 108 246.3888416 108 237 Z" stroke-miterlimit="10"></path></g><g transform="translate(-98,-210) scale(1,1)"><g><path fill="none" stroke="none"></path><text fill="#000000" stroke="none" font-family="Arial" font-size="13px" font-style="normal" font-weight="bold" text-decoration="none" x="145.5" y="244">asdf</text></g></g><g transform="translate(-98,-210) scale(1,1)"><path fill="#ffffff" stroke="none" d="M 342.82072727272725 281.68 C 342.82072727272725 276.886167936 346.70656959767274 273 351.5 273 C 356.29343040232726 273 360.17927272727275 276.886167936 360.17927272727275 281.68 C 360.17927272727275 286.473832064 356.29343040232726 290.36 351.5 290.36 C 346.70656959767274 290.36 342.82072727272725 286.473832064 342.82072727272725 281.68 Z"></path></g><g transform="translate(-98,-210) scale(1,1)"><path fill="none" stroke="#000000" d="M 342.82072727272725 281.68 C 342.82072727272725 276.886167936 346.70656959767274 273 351.5 273 C 356.29343040232726 273 360.17927272727275 276.886167936 360.17927272727275 281.68 C 360.17927272727275 286.473832064 356.29343040232726 290.36 351.5 290.36 C 346.70656959767274 290.36 342.82072727272725 286.473832064 342.82072727272725 281.68 Z" stroke-miterlimit="10"></path></g><g transform="translate(-98,-210) scale(1,1)"><path fill="none" stroke="#000000" d="M 351.5 290.36 L 351.5 307.64" stroke-miterlimit="10"></path></g><g transform="translate(-98,-210) scale(1,1)"><path fill="none" stroke="#000000" d="M 342.31018181818183 296.84 L 360.68981818181817 296.84" stroke-miterlimit="10"></path></g><g transform="translate(-98,-210) scale(1,1)"><path fill="none" stroke="#000000" d="M 351.5 307.64 L 338.73636363636365 325" stroke-miterlimit="10"></path></g><g transform="translate(-98,-210) scale(1,1)"><path fill="none" stroke="#000000" d="M 351.5 307.64 L 364.26363636363635 325" stroke-miterlimit="10"></path></g><g transform="translate(-98,-210) scale(1,1)"><g><path fill="none" stroke="none"></path><text fill="#000000" stroke="none" font-family="Arial" font-size="13px" font-style="normal" font-weight="bold" text-decoration="none" x="331" y="345.5">asdfghj</text></g></g><g transform="translate(-98,-210) scale(1,1)"><path fill="none" stroke="#000000" d="M 323 300.319587628866 L 204.1891891891892 255" stroke-miterlimit="10"></path></g><g transform="translate(-98,-210) scale(1,1)"><g><path fill="none" stroke="none"></path><text fill="#000000" stroke="none" font-family="Arial" font-size="13px" font-style="normal" font-weight="normal" text-decoration="none" x="274" y="311.319587628866">+sdfgh</text></g></g></g></svg>